<svg xmlns:xlink="http://www.w3.org/1999/xlink" xmlns="http://www.w3.org/2000/svg" width="180" height="160" viewBox="0 0 180 160" fill="none">
<path d="M95.3889 156.803C136.409 156.803 169.662 122.426 169.662 80.0031C169.662 37.5803 136.409 3.20312 95.3889 3.20312H84.5312V156.803H95.3889Z" fill="#CC8232"/>
<path d="M85.932 156.803C127.685 156.803 161.532 122.419 161.532 80.0031C161.532 37.5877 127.685 3.20312 85.932 3.20312C44.1793 3.20312 10.332 37.5877 10.332 80.0031C10.332 122.419 44.1793 156.803 85.932 156.803Z" fill="#DFC805"/>
<path d="M85.933 140.919C119.057 140.919 145.909 113.64 145.909 79.9905C145.909 46.3409 119.057 19.0625 85.933 19.0625C52.8092 19.0625 25.957 46.3409 25.957 79.9905C25.957 113.64 52.8092 140.919 85.933 140.919Z" fill="#DBB106"/>
<g style="mix-blend-mode:screen" opacity="0.2">
<path d="M29.1797 60.2057L105.395 137.631C113.042 134.961 120.078 130.746 126.079 125.241L41.3801 39.1936C35.9592 45.2896 31.8091 52.4371 29.1797 60.2057ZM144.281 94.0837L72.0467 20.7031C67.3967 21.8207 62.8962 23.5028 58.6421 25.7134L139.349 107.699C141.524 103.378 143.18 98.8068 144.281 94.0837Z" fill="#E0E0E0"/>
</g>
<g style="mix-blend-mode:screen" opacity="0.5">
<path d="M14.2128 80.0031C14.2128 38.2477 47.0214 4.27467 87.876 3.22872C87.2292 3.21166 86.5812 3.20312 85.932 3.20312C44.172 3.20312 10.332 37.5803 10.332 80.0031C10.332 122.426 44.172 156.803 85.932 156.803C86.5824 156.803 87.2304 156.795 87.876 156.778C47.0214 155.732 14.2128 121.759 14.2128 80.0031Z" fill="#E0E0E0"/>
</g>
<g style="mix-blend-mode:screen">
<path d="M111.936 27.4136C140.916 44.8655 150.501 82.8869 133.322 112.338C126.566 123.961 116.244 133.013 103.939 138.106C118.048 133.618 130.019 123.976 137.538 111.043C154.424 82.0934 145.011 44.7192 116.516 27.5654C107.578 22.1687 97.4075 19.2376 87.0117 19.0625C95.8195 19.9687 104.326 22.8189 111.936 27.4136Z" fill="#E0E0E0"/>
</g>
<path d="M55.3654 132.436C68.1616 140.166 83.3378 142.763 97.921 139.721C85.2509 140.985 72.5148 138.101 61.5718 131.492C33.0688 114.338 23.6566 76.964 40.5442 48.0196C44.8062 40.6927 50.5356 34.3569 57.3613 29.4224C64.187 24.488 71.9568 21.065 80.1676 19.375C61.7878 21.2036 44.479 31.5825 34.3432 48.9576C17.461 77.9076 26.8696 115.282 55.3654 132.436Z" fill="#CC8232"/>
<path d="M116.158 118.186L102.001 95.6195H122.331V87.1002H55.6641V95.6286H75.9933L61.8363 118.186H72.3717L88.9965 91.6899L105.623 118.186H116.158ZM122.331 78.8058V70.2773H102.417L116.405 47.9688H105.785L88.9965 74.8835L72.2079 47.9688H61.5879L75.5811 70.2773H55.6641V78.8899L122.331 78.8058Z" fill="#CC8232"/>
<path d="M116.139 118.201L101.982 95.6268H122.311V87.0984H55.6445V95.6268H75.9737L61.8167 118.201H72.3557L88.9769 91.6972L105.604 118.201H116.139ZM122.311 78.8204V70.292H102.394L116.386 47.9688H105.766L88.9769 74.8908L72.1883 47.9688H61.5683L75.5597 70.292H55.6445V78.8972L122.311 78.8131V78.8204Z" fill="#CC8232"/>
<path d="M116.119 118.201L101.962 95.6268H122.292V87.0984H55.625V95.6268H75.9542L61.7972 118.201H72.3326L88.9574 91.6972L105.584 118.201H116.119ZM122.292 78.8204V70.2919H102.375L116.366 47.9688H105.746L88.9574 74.8926L72.1742 47.9688H61.5542L75.5456 70.2919H55.625V78.9045L122.292 78.8204Z" fill="#CC8232"/>
<path d="M116.105 118.201L101.955 95.6268H122.284V87.0984H55.625V95.6268H75.947L61.79 118.201H72.3254L88.9502 91.6972L105.577 118.201H116.105ZM122.277 78.8204V70.2919H102.367L116.359 47.9688H105.739L88.9502 74.8908L72.1616 47.9688H61.5416L75.533 70.2919H55.625V78.9045L122.292 78.8204H122.277Z" fill="#CC8232"/>
<path d="M116.061 118.201L101.904 95.6268H122.233V87.0984H55.5664V95.6268H75.8956L61.7386 118.201H72.274L88.8916 91.6972L105.518 118.201H116.061ZM122.233 78.8204V70.292H102.316L116.307 47.9688H105.687L88.8916 74.8908L72.1102 47.9688H61.4902L75.4816 70.292H55.5664V78.9045L122.233 78.8204Z" fill="#CC8232"/>
<path d="M116.061 118.122L101.904 95.5487H122.233V87.0202H55.5664V95.5487H75.8956L61.7386 118.122H72.274L88.8988 91.6191L105.525 118.122H116.061ZM122.233 78.7423V70.2138H102.316L116.307 47.8906H105.687L88.8988 74.8127L72.1102 47.8906H61.4902L75.4816 70.2138H55.5664V78.8264L122.233 78.7423Z" fill="#CC8232"/>
<path d="M116.041 118.122L101.884 95.5505H122.208V87.0202H55.5469V95.5505H75.8761L61.7281 118.122H72.2635L88.8793 91.6191L105.506 118.122H116.041ZM122.208 78.7423V70.2138H102.296L116.288 47.8906H105.668L88.8793 74.8127L72.0907 47.8906H61.4707L75.4621 70.2138H55.5469V78.8264L122.208 78.7423Z" fill="#CC8232"/>
<path d="M116.022 118.122L101.867 95.5487H122.194V87.0202H55.5273V95.5487H75.8565L61.6995 118.122H72.2349L88.8597 91.6191L105.486 118.122H116.022ZM122.194 78.7459V70.2138H102.277L116.267 47.8906H105.647L88.8597 74.8127L72.0711 47.8906H61.4511L75.4425 70.2138H55.5273V78.8264L122.194 78.7459Z" fill="#CC8232"/>
<path d="M116.022 118.044L101.865 95.4706H122.194V86.9421H55.5273V95.4706H75.8565L61.6995 118.044H72.2349L88.8597 91.541L105.485 118.044H116.022ZM122.194 78.6642V70.1357H102.277L116.268 47.8125H105.648L88.8597 74.7346L72.0711 47.8125H61.4511L75.4425 70.1357H55.5273V78.7483L122.194 78.6642Z" fill="#CC8232"/>
<path d="M115.983 118.044L101.826 95.4706H122.155V86.9421H55.4883V95.4706H75.8175L61.6605 118.044H72.1959L88.8207 91.541L105.447 118.044H115.983ZM122.155 78.6642V70.1357H102.238L116.229 47.8125H105.609L88.8207 74.7346L72.0321 47.8125H61.4121L75.4035 70.1357H55.4883V78.7483L122.155 78.6642Z" fill="#CC8232"/>
<path d="M115.983 118.03L101.826 95.4632H122.155V86.9439H55.4883V95.4724H75.8175L61.6605 118.03H72.1959L88.8207 91.5336L105.447 118.03H115.983ZM122.155 78.6495V70.1211H102.241L116.229 47.8125H105.609L88.8207 74.7272L72.0321 47.8125H61.4121L75.4053 70.1211H55.4883V78.7336L122.155 78.6495Z" fill="#CC8232"/>
<path d="M115.963 118.044L101.806 95.4706H122.135V86.9421H55.4688V95.4706H75.7979L61.641 118.044H72.1799L88.8011 91.541L105.428 118.044H115.963ZM122.135 78.6642V70.1357H102.218L116.21 47.8125H105.59L88.8011 74.7346L72.0126 47.8125H61.3926L75.3839 70.1357H55.4688V78.741L122.135 78.6568V78.6642Z" fill="#CC8232"/>
<path d="M115.944 118.044L101.787 95.4706H122.116V86.9421H55.4492V95.4706H75.7784L61.6214 118.044H72.1568L88.7816 91.541L105.408 118.044H115.944ZM122.116 78.6642V70.1357H102.199L116.19 47.8125H105.57L88.7816 74.7364L71.9984 47.8125H61.3784L75.3698 70.1357H55.4492V78.7483L122.116 78.6642Z" fill="#CC8232"/>
<path d="M115.929 117.966L101.779 95.3924H122.109V86.864H55.4492V95.3924H75.7712L61.6142 117.966H72.1496L88.7744 91.4628L105.401 117.966H115.929ZM122.101 78.586V70.0576H102.192L116.183 47.7344H105.563L88.7744 74.6564L71.9858 47.7344H61.3658L75.3572 70.0576H55.4492V78.6701L122.116 78.586H122.101Z" fill="#CC8232"/>
<path d="M115.885 117.966L101.728 95.3924H122.057V86.864H55.3906V95.3924H75.7198L61.5628 117.966H72.0982L88.7158 91.4628L105.342 117.966H115.885ZM122.057 78.586V70.0576H102.14L116.132 47.7344H105.512L88.7158 74.6564L71.9344 47.7344H61.3144L75.3058 70.0576H55.3906V78.6701L122.057 78.586Z" fill="#CC8232"/>
<path d="M115.885 117.966L101.728 95.3924H122.057V86.864H55.3906V95.3924H75.7198L61.5628 117.966H72.0982L88.723 91.4628L105.35 117.966H115.885ZM122.057 78.586V70.0576H102.14L116.132 47.7344H105.512L88.723 74.6564L71.9344 47.7344H61.3144L75.3058 70.0576H55.3906V78.6702L122.057 78.586Z" fill="#CC8232"/>
<path d="M115.865 117.888L101.708 95.3161H122.032V86.7859H55.3711V95.3161H75.7003L61.5523 117.888H72.0877L88.7035 91.3847L105.33 117.888H115.865ZM122.032 78.5079V69.9795H102.121L116.112 47.6562H105.492L88.7035 74.5783L71.9149 47.6562H61.2949L75.2863 69.9795H55.3711V78.592L122.032 78.5079Z" fill="#CC8232"/>
<path d="M115.846 117.888L101.691 95.3143H122.018V86.7859H55.3516V95.3143H75.6808L61.5238 117.888H72.0592L88.684 91.3847L105.311 117.888H115.846ZM122.018 78.5116V69.9794H102.101L116.091 47.6562H105.471L88.684 74.5783L71.8954 47.6562H61.2754L75.2668 69.9794H55.3516V78.592L122.018 78.5116Z" fill="#CC8232"/>
<path d="M115.826 117.888L101.669 95.3143H121.999V86.7859H55.332V95.3143H75.6612L61.5042 117.888H72.0396L88.6644 91.3847L105.289 117.888H115.826ZM121.999 78.5079V69.9794H102.082L116.073 47.6562H105.453L88.6644 74.5783L71.8758 47.6562H61.2558L75.2472 69.9794H55.332V78.592L121.999 78.5079Z" fill="#CC8232"/>
<path d="M115.807 117.888L101.65 95.3143H121.979V86.7859H55.3125V95.3143H75.6417L61.4847 117.888H72.0201L88.6449 91.3847L105.271 117.888H115.807ZM121.979 78.5079V69.9795H102.062L116.054 47.6562H105.434L88.6449 74.5783L71.8563 47.6562H61.2363L75.2277 69.9795H55.3125V78.592L121.979 78.5079Z" fill="#CC8232"/>
<path d="M115.787 117.873L101.63 95.307H121.96V86.7877H55.293V95.3161H75.6222L61.4652 117.873H72.0006L88.6254 91.3774L105.252 117.873H115.787ZM121.96 78.4933V69.9648H102.046L116.034 47.6562H105.414L88.6254 74.571L71.8368 47.6562H61.2168L75.21 69.9648H55.293V78.5774L121.96 78.4933Z" fill="#CC8232"/>
<path d="M115.787 117.888L101.63 95.3143H121.96V86.7859H55.293V95.3143H75.6222L61.4652 117.888H72.0042L88.6254 91.3847L105.252 117.888H115.787ZM121.96 78.5079V69.9795H102.043L116.034 47.6562H105.414L88.6254 74.5783L71.8368 47.6562H61.2168L75.2082 69.9795H55.293V78.5847L121.96 78.5006V78.5079Z" fill="#CC8232"/>
<path d="M115.768 117.81L101.611 95.2362H121.94V86.7077H55.2734V95.2362H75.6026L61.4456 117.81H71.981L88.6058 91.3066L105.232 117.81H115.768ZM121.94 78.4298V69.9013H102.023L116.014 47.5781H105.394L88.6058 74.502L71.8226 47.5781H61.2026L75.194 69.9013H55.2734V78.5139L121.94 78.4298Z" fill="#CC8232"/>
<path d="M115.753 117.81L101.604 95.2362H121.933V86.7077H55.2734V95.2362H75.5954L61.4384 117.81H71.9738L88.5986 91.3066L105.225 117.81H115.753ZM121.926 78.4298V69.9013H102.016L116.007 47.5781H105.387L88.5986 74.5002L71.81 47.5781H61.19L75.1814 69.9013H55.2734V78.5139L121.94 78.4298H121.926Z" fill="#CC8232"/>
<path d="M115.709 117.81L101.552 95.2362H121.881V86.7077H55.2148V95.2362H75.544L61.387 117.81H71.9224L88.54 91.3066L105.167 117.81H115.709ZM121.881 78.4298V69.9013H101.964L115.956 47.5781H105.336L88.54 74.5002L71.7586 47.5781H61.1386L75.13 69.9013H55.2148V78.5139L121.881 78.4298Z" fill="#CC8232"/>
<path d="M115.69 117.732L101.533 95.1581H121.862V86.6296H55.1953V95.1581H75.5245L61.3675 117.732H71.9029L88.5277 91.2285L105.154 117.732H115.69ZM121.862 78.3517V69.8232H101.945L115.936 47.5H105.316L88.5277 74.4221L71.7391 47.5H61.1191L75.1105 69.8232H55.1953V78.4358L121.862 78.3517Z" fill="#CC8232"/>
<path d="M115.69 117.732L101.533 95.1599H121.857V86.6296H55.1953V95.1599H75.5245L61.3765 117.732H71.9119L88.5277 91.2285L105.154 117.732H115.69ZM121.857 78.3517V69.8232H101.945L115.936 47.5H105.316L88.5277 74.4221L71.7391 47.5H61.1191L75.1105 69.8232H55.1953V78.4358L121.857 78.3517Z" fill="#CC8232"/>
<path d="M115.67 117.732L101.515 95.1581H121.842V86.6296H55.1758V95.1581H75.505L61.348 117.732H71.8834L88.5082 91.2285L105.135 117.732H115.67ZM121.842 78.3553V69.8232H101.925L115.915 47.5H105.295L88.5082 74.4221L71.7196 47.5H61.0996L75.091 69.8232H55.1758V78.4358L121.842 78.3553Z" fill="#CC8232"/>
<path d="M115.651 117.732L101.494 95.1581H121.823V86.6296H55.1562V95.1581H75.4854L61.3285 117.732H71.8639L88.4887 91.2285L105.113 117.732H115.651ZM121.823 78.3517V69.8232H101.906L115.897 47.5H105.277L88.4887 74.4221L71.7001 47.5H61.0801L75.0715 69.8232H55.1562V78.4358L121.823 78.3517Z" fill="#CC8232"/>
<path d="M115.631 117.732L101.474 95.1581H121.803V86.6296H55.1367V95.1581H75.4659L61.3089 117.732H71.8443L88.4691 91.2285L105.096 117.732H115.631ZM121.803 78.3517V69.8232H101.886L115.878 47.5H105.258L88.4691 74.4221L71.6805 47.5H61.0605L75.0519 69.8232H55.1367V78.4358L121.803 78.3517Z" fill="#CC8232"/>
<path d="M115.612 117.717L101.455 95.1507H121.784V86.6314H55.1172V95.1599H75.4464L61.2894 117.717H71.8248L88.4496 91.2211L105.076 117.717H115.612ZM121.784 78.337V69.8086H101.87L115.858 47.5H105.238L88.4496 74.4147L71.661 47.5H61.041L75.0342 69.8086H55.1172V78.4211L121.784 78.337Z" fill="#CC8232"/>
<path d="M115.612 117.654L101.455 95.0799H121.784V86.5515H55.1172V95.0799H75.4464L61.2894 117.654H71.8284L88.4496 91.1503L105.076 117.654H115.612ZM121.784 78.2735V69.7451H101.867L115.858 47.4219H105.238L88.4496 74.3439L71.661 47.4219H61.041L75.0324 69.7451H55.1172V78.3503L121.784 78.2662V78.2735Z" fill="#CC8232"/>
<path d="M115.592 117.654L101.435 95.0799H121.764V86.5515H55.0977V95.0799H75.4269L61.2699 117.654H71.8053L88.4301 91.1503L105.057 117.654H115.592ZM121.764 78.2735V69.7451H101.847L115.839 47.4219H105.219L88.4301 74.3458L71.6469 47.4219H61.0269L75.0183 69.7451H55.0977V78.3576L121.764 78.2735Z" fill="#CC8232"/>
<path d="M115.558 117.654L101.408 95.0799H121.738V86.5515H55.0781V95.0799H75.4001L61.2431 117.654H71.7785L88.4033 91.1503L105.03 117.654H115.558ZM121.73 78.2735V69.7451H101.821L115.812 47.4219H105.192L88.4033 74.3439L71.6147 47.4219H60.9947L74.9861 69.7451H55.0781V78.3576L121.745 78.2735H121.73Z" fill="#CC8232"/>
<path d="M115.533 117.576L101.376 95.0018H121.706V86.4734H55.0391V95.0018H75.3683L61.2113 117.576H71.7467L88.3643 91.0722L104.991 117.576H115.533ZM121.706 78.1954V69.667H101.789L115.78 47.3438H105.16L88.3643 74.2658L71.5829 47.3438H60.9629L74.9543 69.667H55.0391V78.2795L121.706 78.1954Z" fill="#CC8232"/>
<path d="M115.514 117.576L101.357 95.0018H121.686V86.4734H55.0195V95.0018H75.3487L61.1917 117.576H71.7271L88.3519 91.0722L104.979 117.576H115.514ZM121.686 78.1954V69.667H101.769L115.761 47.3438H105.141L88.3519 74.2658L71.5633 47.3438H60.9433L74.9347 69.667H55.0195V78.2795L121.686 78.1954Z" fill="#CC8232"/>
<path d="M115.494 117.576L101.337 95.0036H121.661V86.4734H55V95.0036H75.3292L61.1812 117.576H71.7166L88.3324 91.0722L104.959 117.576H115.494ZM121.661 78.1954V69.667H101.75L115.741 47.3438H105.121L88.3324 74.2658L71.5438 47.3438H60.9238L74.9152 69.667H55V78.2795L121.661 78.1954Z" fill="#CC8232"/>
<path d="M115.494 117.576L101.339 95.0018H121.667V86.4734H55V95.0018H75.3292L61.1722 117.576H71.7076L88.3324 91.0722L104.959 117.576H115.494ZM121.667 78.1991V69.6669H101.75L115.739 47.3438H105.119L88.3324 74.2658L71.5438 47.3438H60.9238L74.9152 69.6669H55V78.2795L121.667 78.1991Z" fill="#CC8232"/>
<path d="M115.475 117.576L101.318 95.0018H121.647V86.4734H54.9805V95.0018H75.3097L61.1527 117.576H71.6881L88.3129 91.0722L104.938 117.576H115.475ZM121.647 78.1954V69.6669H101.73L115.721 47.3438H105.101L88.3129 74.2658L71.5243 47.3438H60.9043L74.8957 69.6669H54.9805V78.2795L121.647 78.1954Z" fill="#CC8232"/>
<path d="M115.455 117.497L101.298 94.9237H121.628V86.3952H54.9609V94.9237H75.2901L61.1331 117.497H71.6685L88.2933 90.9941L104.92 117.497H115.455ZM121.628 78.1173V69.5888H101.711L115.702 47.2656H105.082L88.2933 74.1877L71.5047 47.2656H60.8847L74.8761 69.5888H54.9609V78.2014L121.628 78.1173Z" fill="#CC8232"/>
<path d="M115.436 117.483L101.279 94.9164H121.608V86.397H54.9414V94.9255H75.2706L61.1136 117.483H71.649L88.2738 90.9868L104.9 117.483H115.436ZM121.608 78.1027V69.5742H101.695L115.682 47.2656H105.062L88.2738 74.1804L71.4852 47.2656H60.8652L74.8584 69.5742H54.9414V78.1868L121.608 78.1027Z" fill="#CC8232"/>
<path d="M115.416 117.497L101.259 94.9237H121.588V86.3952H54.9219V94.9237H75.2511L61.0941 117.497H71.6331L88.2543 90.9941L104.881 117.497H115.416ZM121.588 78.1173V69.5888H101.671L115.663 47.2656H105.043L88.2543 74.1877L71.4657 47.2656H60.8457L74.8371 69.5888H54.9219V78.1941L121.588 78.11V78.1173Z" fill="#CC8232"/>
<path d="M115.416 117.419L101.259 94.8456H121.588V86.3171H54.9219V94.8456H75.2511L61.0941 117.419H71.6295L88.2543 90.916L104.881 117.419H115.416ZM121.588 78.0392V69.5107H101.671L115.663 47.1875H105.043L88.2543 74.1114L71.4711 47.1875H60.8511L74.8425 69.5107H54.9219V78.1233L121.588 78.0392Z" fill="#CC8232"/>
<path d="M115.382 117.419L101.233 94.8456H121.562V86.3171H54.9023V94.8456H75.2243L61.0673 117.419H71.6027L88.2275 90.916L104.854 117.419H115.382ZM121.555 78.0392V69.5107H101.645L115.636 47.1875H105.016L88.2275 74.1096L71.4389 47.1875H60.8189L74.8103 69.5107H54.9023V78.1233L121.569 78.0392H121.555Z" fill="#CC8232"/>
<path d="M115.358 117.419L101.201 94.8456H121.53V86.3171H54.8633V94.8456H75.1925L61.0355 117.419H71.5709L88.1885 90.916L104.815 117.419H115.358ZM121.53 78.0392V69.5107H101.613L115.604 47.1875H104.984L88.1885 74.1096L71.4071 47.1875H60.7871L74.7785 69.5107H54.8633V78.1233L121.53 78.0392Z" fill="#CC8232"/>
<path d="M115.338 117.419L101.181 94.8456H121.51V86.3171H54.8438V94.8456H75.173L61.0159 117.419H71.5513L88.1762 90.916L104.803 117.419H115.338ZM121.51 78.0392V69.5107H101.593L115.585 47.1875H104.965L88.1762 74.1096L71.3876 47.1875H60.7676L74.7589 69.5107H54.8438V78.1233L121.51 78.0392Z" fill="#CC8232"/>
<path d="M115.319 117.419L101.162 94.8474H121.485V86.3171H54.8242V94.8474H75.1534L61.0054 117.419H71.5408L88.1566 90.916L104.783 117.419H115.319ZM121.485 78.0392V69.5107H101.574L115.565 47.1875H104.945L88.1566 74.1096L71.368 47.1875H60.748L74.7394 69.5107H54.8242V78.1233L121.485 78.0392Z" fill="#CC8232"/>
<path d="M115.319 117.341L101.163 94.7674H121.491V86.239H54.8242V94.7674H75.1534L60.9964 117.341H71.5318L88.1566 90.8378L104.783 117.341H115.319ZM121.491 77.9647V69.4326H101.574L115.563 47.1094H104.943L88.1566 74.0314L71.368 47.1094H60.748L74.7394 69.4326H54.8242V78.0451L121.491 77.9647Z" fill="#CC8232"/>
<path d="M115.28 117.341L101.123 94.7674H121.452V86.239H54.7852V94.7674H75.1144L60.9574 117.341H71.4928L88.1176 90.8378L104.742 117.341H115.28ZM121.452 77.961V69.4326H101.535L115.526 47.1094H104.906L88.1176 74.0314L71.329 47.1094H60.709L74.7004 69.4326H54.7852V78.0451L121.452 77.961Z" fill="#CC8232"/>
<path d="M115.28 117.341L101.123 94.7674H121.452V86.239H54.7852V94.7674H75.1144L60.9574 117.341H71.4928L88.1176 90.8378L104.744 117.341H115.28ZM121.452 77.961V69.4326H101.535L115.526 47.1094H104.906L88.1176 74.0314L71.329 47.1094H60.709L74.7004 69.4326H54.7852V78.0451L121.452 77.961Z" fill="#CC8232"/>
<path d="M115.26 117.327L101.103 94.7601H121.432V86.2408H54.7656V94.7693H75.0948L60.9378 117.327H71.4732L88.098 90.8305L104.725 117.327H115.26ZM121.432 77.9464V69.4179H101.519L115.507 47.1094H104.887L88.098 74.0241L71.3094 47.1094H60.6894L74.6826 69.4179H54.7656V78.0305L121.432 77.9464Z" fill="#CC8232"/>
<path d="M115.24 117.263L101.083 94.6893H121.413V86.1609H54.7461V94.6893H75.0753L60.9183 117.263H71.4573L88.0785 90.7597L104.705 117.263H115.24ZM121.413 77.8829V69.3545H101.496L115.487 47.0312H104.867L88.0785 73.9533L71.2899 47.0312H60.6699L74.6613 69.3545H54.7461V77.9597L121.413 77.8756V77.8829Z" fill="#CC8232"/>
<path d="M115.24 117.263L101.083 94.6893H121.413V86.1609H54.7461V94.6893H75.0753L60.9183 117.263H71.4537L88.0785 90.7597L104.705 117.263H115.24ZM121.413 77.8829V69.3544H101.496L115.487 47.0312H104.867L88.0785 73.9551L71.2953 47.0312H60.6753L74.6667 69.3544H54.7461V77.967L121.413 77.8829Z" fill="#CC8232"/>
<path d="M115.207 117.263L101.057 94.6893H121.386V86.1609H54.7266V94.6893H75.0486L60.8916 117.263H71.427L88.0518 90.7597L104.678 117.263H115.207ZM121.379 77.8829V69.3544H101.469L115.46 47.0312H104.84L88.0518 73.9533L71.2632 47.0312H60.6432L74.6346 69.3544H54.7266V77.967L121.393 77.8829H121.379Z" fill="#CC8232"/>
<path d="M115.182 117.263L101.025 94.6893H121.354V86.1609H54.6875V94.6893H75.0167L60.8597 117.263H71.3951L88.0127 90.7597L104.639 117.263H115.182ZM121.354 77.8829V69.3545H101.437L115.429 47.0312H104.809L88.0127 73.9533L71.2313 47.0312H60.6113L74.6027 69.3545H54.6875V77.967L121.354 77.8829Z" fill="#CC8232"/>
<path d="M115.162 117.263L101.005 94.6893H121.335V86.1609H54.668V94.6893H74.9972L60.8402 117.263H71.3756L88.0004 90.7597L104.627 117.263H115.162ZM121.335 77.8829V69.3545H101.418L115.409 47.0312H104.789L88.0004 73.9533L71.2118 47.0312H60.5918L74.5832 69.3545H54.668V77.967L121.335 77.8829Z" fill="#CC8232"/>
<path d="M115.143 117.185L100.986 94.613H121.31V86.0827H54.6484V94.613H74.9776L60.8296 117.185H71.365L87.9808 90.6816L104.607 117.185H115.143ZM121.31 77.8048V69.2763H101.398L115.389 46.9531H104.769L87.9808 73.8752L71.1922 46.9531H60.5722L74.5636 69.2763H54.6484V77.8889L121.31 77.8048Z" fill="#CC8232"/>
<path d="M115.123 117.185L100.968 94.6112H121.296V86.0827H54.6289V94.6112H74.9581L60.8011 117.185H71.3365L87.9613 90.6816L104.588 117.185H115.123ZM121.296 77.8084V69.2763H101.379L115.368 46.9531H104.748L87.9613 73.8752L71.1727 46.9531H60.5527L74.5441 69.2763H54.6289V77.8889L121.296 77.8084Z" fill="#CC8232"/>
<path d="M115.104 117.185L100.947 94.6112H121.276V86.0827H54.6094V94.6112H74.9386L60.7816 117.185H71.317L87.9418 90.6816L104.567 117.185H115.104ZM121.276 77.8048V69.2763H101.359L115.35 46.9531H104.73L87.9418 73.8752L71.1532 46.9531H60.5332L74.5246 69.2763H54.6094V77.8889L121.276 77.8048Z" fill="#CC8232"/>
<path d="M115.104 117.107L100.947 94.5331H121.276V86.0046H54.6094V94.5331H74.9386L60.7816 117.107H71.317L87.9418 90.6035L104.568 117.107H115.104ZM121.276 77.7267V69.1982H101.359L115.35 46.875H104.73L87.9418 73.7971L71.1532 46.875H60.5332L74.5246 69.1982H54.6094V77.8108L121.276 77.7267Z" fill="#CC8232"/>
<path d="M115.084 117.092L100.927 94.5257H121.256V86.0064H54.5898V94.5349H74.919L60.762 117.092H71.2974L87.9222 90.5961L104.549 117.092H115.084ZM121.256 77.712V69.1836H101.343L115.331 46.875H104.711L87.9222 73.7897L71.1336 46.875H60.5136L74.5068 69.1836H54.5898V77.7961L121.256 77.712Z" fill="#CC8232"/>
<path d="M115.065 117.107L100.908 94.5331H121.237V86.0046H54.5703V94.5331H74.8995L60.7425 117.107H71.2815L87.9027 90.6035L104.529 117.107H115.065ZM121.237 77.7267V69.1982H101.32L115.311 46.875H104.691L87.9027 73.7971L71.1141 46.875H60.4941L74.4855 69.1982H54.5703V77.8035L121.237 77.7193V77.7267Z" fill="#CC8232"/>
<path d="M115.026 117.107L100.869 94.5331H121.198V86.0046H54.5312V94.5331H74.8605L60.7035 117.107H71.2389L87.8637 90.6035L104.49 117.107H115.026ZM121.198 77.7267V69.1982H101.281L115.272 46.875H104.652L87.8637 73.7989L71.0805 46.875H60.4605L74.4519 69.1982H54.5312V77.8108L121.198 77.7267Z" fill="#CC8232"/>
<path d="M114.992 117.107L100.842 94.5331H121.171V86.0046H54.5117V94.5331H74.8337L60.6767 117.107H71.2121L87.8369 90.6035L104.464 117.107H114.992ZM121.164 77.7267V69.1982H101.254L115.246 46.875H104.626L87.8369 73.7971L71.0483 46.875H60.4283L74.4197 69.1982H54.5117V77.8108L121.178 77.7267H121.164Z" fill="#CC8232"/>
<path d="M114.987 117.029L100.83 94.4549H121.159V85.9265H54.4922V94.4549H74.8214L60.6644 117.029H71.1998L87.8174 90.5253L104.444 117.029H114.987ZM121.159 77.6485V69.1201H101.242L115.233 46.7969H104.613L87.8174 73.7189L71.036 46.7969H60.416L74.4074 69.1201H54.4922V77.7326L121.159 77.6485Z" fill="#CC8232"/>
<path d="M114.967 117.029L100.81 94.4549H121.139V85.9265H54.4727V94.4549H74.8019L60.6449 117.029H71.1803L87.8051 90.5253L104.432 117.029H114.967ZM121.139 77.6485V69.1201H101.222L115.214 46.7969H104.594L87.8051 73.7189L71.0165 46.7969H60.3965L74.3879 69.1201H54.4727V77.7327L121.139 77.6485Z" fill="#CC8232"/>
<path d="M114.967 117.029L100.81 94.4568H121.134V85.9265H54.4727V94.4568H74.8019L60.6539 117.029H71.1893L87.8051 90.5253L104.432 117.029H114.967ZM121.134 77.6485V69.1201H101.222L115.214 46.7969H104.594L87.8051 73.7189L71.0165 46.7969H60.3965L74.3879 69.1201H54.4727V77.7327L121.134 77.6485Z" fill="#CC8232"/>
<path d="M114.948 117.029L100.792 94.4549H121.12V85.9265H54.4531V94.4549H74.7823L60.6253 117.029H71.1607L87.7855 90.5253L104.412 117.029H114.948ZM121.12 77.6522V69.1201H101.203L115.192 46.7969H104.572L87.7855 73.7189L70.9969 46.7969H60.3769L74.3683 69.1201H54.4531V77.7326L121.12 77.6522Z" fill="#CC8232"/>
<path d="M114.928 116.951L100.771 94.3768H121.1V85.8484H54.4336V94.3768H74.7628L60.6058 116.951H71.1412L87.766 90.4472L104.391 116.951H114.928ZM121.1 77.5704V69.0419H101.183L115.175 46.7188H104.555L87.766 73.6408L70.9774 46.7188H60.3574L74.3488 69.0419H54.4336V77.6545L121.1 77.5704Z" fill="#CC8232"/>
<path d="M114.908 116.951L100.751 94.3768H121.081V85.8484H54.4141V94.3768H74.7433L60.5863 116.951H71.1217L87.7465 90.4472L104.373 116.951H114.908ZM121.081 77.5704V69.042H101.164L115.155 46.7188H104.535L87.7465 73.6408L70.9579 46.7188H60.3379L74.3293 69.042H54.4141V77.6545L121.081 77.5704Z" fill="#CC8232"/>
<path d="M114.908 116.936L100.751 94.3695H121.081V85.8502H54.4141V94.3786H74.7433L60.5863 116.936H71.1217L87.7465 90.4399L104.373 116.936H114.908ZM121.081 77.5558V69.0273H101.167L115.155 46.7188H104.535L87.7465 73.6335L70.9579 46.7188H60.3379L74.3311 69.0273H54.4141V77.6399L121.081 77.5558Z" fill="#CC8232"/>
<path d="M114.889 116.951L100.732 94.3768H121.061V85.8484H54.3945V94.3768H74.7237L60.5667 116.951H71.1057L87.7269 90.4472L104.354 116.951H114.889ZM121.061 77.5704V69.042H101.144L115.136 46.7188H104.516L87.7269 73.6408L70.9383 46.7188H60.3183L74.3097 69.042H54.3945V77.6472L121.061 77.5631V77.5704Z" fill="#CC8232"/>
<path d="M114.869 116.951L100.712 94.3768H121.042V85.8484H54.375V94.3768H74.7042L60.5472 116.951H71.0826L87.7074 90.4472L104.334 116.951H114.869ZM121.042 77.5704V69.0419H101.125L115.116 46.7188H104.496L87.7074 73.6426L70.9242 46.7188H60.3042L74.2956 69.0419H54.375V77.6545L121.042 77.5704Z" fill="#CC8232"/>
<path d="M114.816 116.872L100.666 94.2987H120.995V85.7702H54.3359V94.2987H74.6579L60.5009 116.872H71.0363L87.6611 90.3691L104.288 116.872H114.816ZM120.988 77.4923V68.9638H101.078L115.07 46.6406H104.45L87.6611 73.5627L70.8725 46.6406H60.2525L74.2439 68.9638H54.3359V77.5764L121.003 77.4923H120.988Z" fill="#CC8232"/>
<path d="M114.811 116.872L100.654 94.2987H120.983V85.7702H54.3164V94.2987H74.6456L60.4886 116.872H71.024L87.6416 90.3691L104.268 116.872H114.811ZM120.983 77.4923V68.9638H101.066L115.057 46.6406H104.437L87.6416 73.5627L70.8602 46.6406H60.2402L74.2316 68.9638H54.3164V77.5764L120.983 77.4923Z" fill="#CC8232"/>
<path d="M114.811 116.872L100.654 94.2987H120.983V85.7702H54.3164V94.2987H74.6456L60.4886 116.872H71.024L87.6488 90.3691L104.275 116.872H114.811ZM120.983 77.4923V68.9638H101.066L115.057 46.6406H104.437L87.6488 73.5627L70.8602 46.6406H60.2402L74.2316 68.9638H54.3164V77.5764L120.983 77.4923Z" fill="#CC8232"/>
<path d="M114.791 116.794L100.634 94.2224H120.958V85.6921H54.2969V94.2224H74.6261L60.4781 116.794H71.0135L87.6293 90.291L104.256 116.794H114.791ZM120.958 77.4142V68.8857H101.046L115.038 46.5625H104.418L87.6293 73.4846L70.8407 46.5625H60.2207L74.2121 68.8857H54.2969V77.4983L120.958 77.4142Z" fill="#CC8232"/>
<path d="M114.772 116.794L100.617 94.2206H120.944V85.6921H54.2773V94.2206H74.6065L60.4495 116.794H70.9849L87.6097 90.291L104.236 116.794H114.772ZM120.944 77.4178V68.8857H101.027L115.017 46.5625H104.397L87.6097 73.4846L70.8211 46.5625H60.2011L74.1925 68.8857H54.2773V77.4983L120.944 77.4178Z" fill="#CC8232"/>
<path d="M114.752 116.794L100.595 94.2206H120.924V85.6921H54.2578V94.2206H74.587L60.43 116.794H70.9654L87.5902 90.291L104.215 116.794H114.752ZM120.924 77.4142V68.8857H101.007L114.999 46.5625H104.379L87.5902 73.4846L70.8016 46.5625H60.1816L74.173 68.8857H54.2578V77.4983L120.924 77.4142Z" fill="#CC8232"/>
<path d="M114.733 116.794L100.576 94.2206H120.905V85.6921H54.2383V94.2206H74.5675L60.4105 116.794H70.9459L87.5707 90.291L104.197 116.794H114.733ZM120.905 77.4142V68.8857H100.988L114.979 46.5625H104.359L87.5707 73.4846L70.7821 46.5625H60.1621L74.1535 68.8857H54.2383V77.4983L120.905 77.4142Z" fill="#CC8232"/>
<path d="M114.713 116.78L100.556 94.2132H120.885V85.6939H54.2188V94.2224H74.548L60.3909 116.78H70.9263L87.5512 90.2836L104.178 116.78H114.713ZM120.885 77.3995V68.8711H100.972L114.96 46.5625H104.34L87.5512 73.4772L70.7626 46.5625H60.1426L74.1357 68.8711H54.2188V77.4836L120.885 77.3995Z" fill="#CC8232"/>
<path d="M114.713 116.716L100.556 94.1424H120.885V85.614H54.2188V94.1424H74.5479L60.391 116.716H70.9299L87.5511 90.2128L104.178 116.716H114.713ZM120.885 77.336V68.8076H100.968L114.96 46.4844H104.34L87.5511 73.4064L70.7626 46.4844H60.1426L74.1339 68.8076H54.2188V77.4128L120.885 77.3287V77.336Z" fill="#CC8232"/>
<path d="M114.674 116.716L100.517 94.1424H120.846V85.614H54.1797V94.1424H74.5089L60.3519 116.716H70.8873L87.5121 90.2128L104.139 116.716H114.674ZM120.846 77.336V68.8076H100.929L114.921 46.4844H104.301L87.5121 73.4083L70.7289 46.4844H60.1089L74.1003 68.8076H54.1797V77.4201L120.846 77.336Z" fill="#CC8232"/>
<path d="M114.64 116.716L100.49 94.1424H120.82V85.614H54.1602V94.1424H74.4822L60.3252 116.716H70.8606L87.4854 90.2128L104.112 116.716H114.64ZM120.812 77.336V68.8076H100.903L114.894 46.4844H104.274L87.4854 73.4064L70.6968 46.4844H60.0768L74.0682 68.8076H54.1602V77.4201L120.827 77.336H120.812Z" fill="#CC8232"/>
<path d="M114.635 116.716L100.478 94.1424H120.807V85.614H54.1406V94.1424H74.4698L60.3128 116.716H70.8482L87.4658 90.2128L104.092 116.716H114.635ZM120.807 77.336V68.8076H100.89L114.882 46.4844H104.262L87.4658 73.4064L70.6844 46.4844H60.0644L74.0558 68.8076H54.1406V77.4201L120.807 77.336Z" fill="#CC8232"/>
<path d="M114.615 116.638L100.458 94.0643H120.788V85.5359H54.1211V94.0643H74.4503L60.2933 116.638H70.8287L87.4535 90.1347L104.08 116.638H114.615ZM120.788 77.2579V68.7295H100.871L114.862 46.4062H104.242L87.4535 73.3283L70.6649 46.4062H60.0449L74.0363 68.7295H54.1211V77.342L120.788 77.2579Z" fill="#CC8232"/>
<path d="M114.615 116.638L100.458 94.0661H120.782V85.5359H54.1211V94.0661H74.4503L60.3023 116.638H70.8377L87.4535 90.1347L104.08 116.638H114.615ZM120.782 77.2579V68.7295H100.871L114.862 46.4062H104.242L87.4535 73.3283L70.6649 46.4062H60.0449L74.0363 68.7295H54.1211V77.342L120.782 77.2579Z" fill="#CC8232"/>
<path d="M114.576 116.638L100.421 94.0643H120.749V85.5359H54.082V94.0643H74.4112L60.2542 116.638H70.7896L87.4144 90.1347L104.041 116.638H114.576ZM120.749 77.2616V68.7294H100.832L114.821 46.4062H104.201L87.4144 73.3283L70.6258 46.4062H60.0058L73.9972 68.7294H54.082V77.342L120.749 77.2616Z" fill="#CC8232"/>
<path d="M114.576 116.638L100.419 94.0643H120.749V85.5359H54.082V94.0643H74.4112L60.2542 116.638H70.7896L87.4144 90.1347L104.039 116.638H114.576ZM120.749 77.2579V68.7294H100.832L114.823 46.4062H104.203L87.4144 73.3283L70.6258 46.4062H60.0058L73.9972 68.7294H54.082V77.342L120.749 77.2579Z" fill="#CC8232"/>
<path d="M114.557 116.638L100.4 94.0643H120.729V85.5359H54.0625V94.0643H74.3917L60.2347 116.638H70.7701L87.3949 90.1347L104.021 116.638H114.557ZM120.729 77.2579V68.7295H100.812L114.804 46.4062H104.184L87.3949 73.3283L70.6063 46.4062H59.9863L73.9777 68.7295H54.0625V77.342L120.729 77.2579Z" fill="#CC8232"/>
<path d="M114.537 116.545L100.38 93.9789H120.71V85.4595H54.043V93.988H74.3722L60.2152 116.545H70.7506L87.3754 90.0493L104.002 116.545H114.537ZM120.71 77.1652V68.6367H100.796L114.784 46.3281H104.164L87.3754 73.2429L70.5868 46.3281H59.9668L73.96 68.6367H54.043V77.2493L120.71 77.1652Z" fill="#CC8232"/>
<path d="M114.537 116.56L100.38 93.9862H120.71V85.4577H54.043V93.9862H74.3722L60.2152 116.56H70.7542L87.3754 90.0566L104.002 116.56H114.537ZM120.71 77.1798V68.6513H100.793L114.784 46.3281H104.164L87.3754 73.2502L70.5868 46.3281H59.9668L73.9582 68.6513H54.043V77.2566L120.71 77.1725V77.1798Z" fill="#CC8232"/>
<path d="M114.479 116.56L100.322 93.9862H120.651V85.4577H53.9844V93.9862H74.3136L60.1566 116.56H70.692L87.3168 90.0566L103.943 116.56H114.479ZM120.651 77.1798V68.6513H100.734L114.725 46.3281H104.105L87.3168 73.252L70.5336 46.3281H59.9136L73.905 68.6513H53.9844V77.2639L120.651 77.1798Z" fill="#CC8232"/>
<path d="M114.464 116.482L100.315 93.9081H120.644V85.3796H53.9844V93.9081H74.3064L60.1494 116.482H70.6848L87.3096 89.9785L103.936 116.482H114.464ZM120.637 77.1017V68.5732H100.727L114.718 46.25H104.098L87.3096 73.1721L70.521 46.25H59.901L73.8924 68.5732H53.9844V77.1858L120.651 77.1017H120.637Z" fill="#CC8232"/>
<path d="M114.459 116.482L100.302 93.9081H120.631V85.3796H53.9648V93.9081H74.294L60.137 116.482H70.6724L87.29 89.9785L103.917 116.482H114.459ZM120.631 77.1017V68.5732H100.714L114.706 46.25H104.086L87.29 73.1721L70.5086 46.25H59.8886L73.88 68.5732H53.9648V77.1858L120.631 77.1017Z" fill="#CC8232"/>
<path d="M114.44 116.482L100.283 93.9081H120.612V85.3796H53.9453V93.9081H74.2745L60.1175 116.482H70.6529L87.2777 89.9785L103.904 116.482H114.44ZM120.612 77.1017V68.5732H100.695L114.686 46.25H104.066L87.2777 73.1721L70.4891 46.25H59.8691L73.8605 68.5732H53.9453V77.1858L120.612 77.1017Z" fill="#CC8232"/>
<path d="M114.42 116.482L100.263 93.9099H120.587V85.3796H53.9258V93.9099H74.255L60.107 116.482H70.6424L87.2582 89.9785L103.885 116.482H114.42ZM120.587 77.1017V68.5732H100.675L114.667 46.25H104.047L87.2582 73.1721L70.4696 46.25H59.8496L73.841 68.5732H53.9258V77.1858L120.587 77.1017Z" fill="#CC8232"/>
<path d="M114.401 116.482L100.245 93.9081H120.573V85.3796H53.9062V93.9081H74.2355L60.0785 116.482H70.6139L87.2387 89.9785L103.865 116.482H114.401ZM120.573 77.1053V68.5732H100.656L114.645 46.25H104.025L87.2387 73.1721L70.4501 46.25H59.8301L73.8215 68.5732H53.9062V77.1858L120.573 77.1053Z" fill="#CC8232"/>
<path d="M114.401 116.482L100.244 93.9081H120.573V85.3796H53.9062V93.9081H74.2354L60.0785 116.482H70.6139L87.2387 89.9785L103.863 116.482H114.401ZM120.573 77.1017V68.5732H100.656L114.647 46.25H104.027L87.2387 73.1721L70.4501 46.25H59.8301L73.8215 68.5732H53.9062V77.1858L120.573 77.1017Z" fill="#CC8232"/>
<path d="M114.381 116.404L100.224 93.8299H120.553V85.3015H53.8867V93.8299H74.2159L60.0589 116.404H70.5943L87.2191 89.9003L103.846 116.404H114.381ZM120.553 77.0235V68.4951H100.636L114.628 46.1719H104.008L87.2191 73.0939L70.4305 46.1719H59.8105L73.8019 68.4951H53.8867V77.1076L120.553 77.0235Z" fill="#CC8232"/>
<path d="M114.362 116.389L100.205 93.8226H120.534V85.3033H53.8672V93.8318H74.1964L60.0394 116.389H70.5748L87.1996 89.893L103.826 116.389H114.362ZM120.534 77.0089V68.4804H100.62L114.608 46.1719H103.988L87.1996 73.0866L70.411 46.1719H59.791L73.7842 68.4804H53.8672V77.093L120.534 77.0089Z" fill="#CC8232"/>
<path d="M114.323 116.404L100.166 93.8299H120.495V85.3015H53.8281V93.8299H74.1573L60.0003 116.404H70.5393L87.1605 89.9003L103.787 116.404H114.323ZM120.495 77.0235V68.4951H100.578L114.569 46.1719H103.949L87.1605 73.0939L70.3719 46.1719H59.7519L73.7433 68.4951H53.8281V77.1003L120.495 77.0162V77.0235Z" fill="#CC8232"/>
<path d="M114.303 116.326L100.146 93.7518H120.475V85.2234H53.8086V93.7518H74.1378L59.9808 116.326H70.5162L87.141 89.8222L103.768 116.326H114.303ZM120.475 76.9454V68.4169H100.558L114.55 46.0938H103.93L87.141 73.0176L70.3578 46.0938H59.7378L73.7292 68.4169H53.8086V77.0295L120.475 76.9454Z" fill="#CC8232"/>
<path d="M114.289 116.326L100.139 93.7518H120.468V85.2234H53.8086V93.7518H74.1306L59.9736 116.326H70.509L87.1338 89.8222L103.76 116.326H114.289ZM120.461 76.9454V68.4169H100.551L114.542 46.0938H103.922L87.1338 73.0158L70.3452 46.0938H59.7252L73.7166 68.4169H53.8086V77.0295L120.475 76.9454H120.461Z" fill="#CC8232"/>
<path d="M114.283 116.326L100.126 93.7518H120.456V85.2234H53.7891V93.7518H74.1183L59.9613 116.326H70.4967L87.1143 89.8222L103.741 116.326H114.283ZM120.456 76.9454V68.417H100.539L114.53 46.0938H103.91L87.1143 73.0158L70.3329 46.0938H59.7129L73.7043 68.417H53.7891V77.0295L120.456 76.9454Z" fill="#CC8232"/>
<path d="M114.264 116.326L100.107 93.7518H120.436V85.2234H53.7695V93.7518H74.0987L59.9417 116.326H70.4771L87.1019 89.8222L103.729 116.326H114.264ZM120.436 76.9454V68.417H100.519L114.511 46.0938H103.891L87.1019 73.0158L70.3133 46.0938H59.6933L73.6847 68.417H53.7695V77.0295L120.436 76.9454Z" fill="#CC8232"/>
<path d="M114.244 116.326L100.087 93.7536H120.411V85.2234H53.75V93.7536H74.0792L59.9312 116.326H70.4666L87.0824 89.8222L103.709 116.326H114.244ZM120.411 76.9454V68.417H100.5L114.491 46.0938H103.871L87.0824 73.0158L70.2938 46.0938H59.6738L73.6652 68.417H53.75V77.0295L120.411 76.9454Z" fill="#CC8232"/>
<path d="M114.225 116.247L100.07 93.6737H120.397V85.1452H53.7305V93.6737H74.0597L59.9027 116.247H70.4381L87.0629 89.7441L103.689 116.247H114.225ZM120.397 76.8709V68.3388H100.48L114.47 46.0156H103.85L87.0629 72.9377L70.2743 46.0156H59.6543L73.6457 68.3388H53.7305V76.9514L120.397 76.8709Z" fill="#CC8232"/>
<path d="M114.205 116.247L100.048 93.6737H120.378V85.1452H53.7109V93.6737H74.0401L59.8831 116.247H70.4185L87.0433 89.7441L103.668 116.247H114.205ZM120.378 76.8673V68.3388H100.461L114.452 46.0156H103.832L87.0433 72.9377L70.2547 46.0156H59.6347L73.6261 68.3388H53.7109V76.9514L120.378 76.8673Z" fill="#CC8232"/>
<path d="M114.205 116.247L100.048 93.6737H120.378V85.1452H53.7109V93.6737H74.0401L59.8831 116.247H70.4185L87.0433 89.7441L103.67 116.247H114.205ZM120.378 76.8673V68.3388H100.461L114.452 46.0156H103.832L87.0433 72.9377L70.2547 46.0156H59.6347L73.6261 68.3388H53.7109V76.9514L120.378 76.8673Z" fill="#CC8232"/>
<path d="M114.186 116.233L100.029 93.6664H120.358V85.147H53.6914V93.6755H74.0206L59.8636 116.233H70.399L87.0238 89.7368L103.65 116.233H114.186ZM120.358 76.8527V68.3242H100.445L114.432 46.0156H103.812L87.0238 72.9304L70.2352 46.0156H59.6152L73.6084 68.3242H53.6914V76.9368L120.358 76.8527Z" fill="#CC8232"/>
<path d="M114.147 116.169L99.9897 93.5956H120.319V85.0671H53.6523V93.5956H73.9815L59.8245 116.169H70.3635L86.9847 89.666L103.611 116.169H114.147ZM120.319 76.7892V68.2607H100.402L114.393 45.9375H103.773L86.9847 72.8596L70.1961 45.9375H59.5761L73.5675 68.2607H53.6523V76.866L120.319 76.7818V76.7892Z" fill="#CC8232"/>
<path d="M114.127 116.169L99.9702 93.5956H120.299V85.0671H53.6328V93.5956H73.962L59.805 116.169H70.3404L86.9652 89.666L103.592 116.169H114.127ZM120.299 76.7892V68.2607H100.382L114.374 45.9375H103.754L86.9652 72.8614L70.182 45.9375H59.562L73.5534 68.2607H53.6328V76.8733L120.299 76.7892Z" fill="#CC8232"/>
<path d="M114.113 116.169L99.963 93.5956H120.292V85.0671H53.6328V93.5956H73.9548L59.7978 116.169H70.3332L86.958 89.666L103.585 116.169H114.113ZM120.285 76.7892V68.2607H100.375L114.367 45.9375H103.747L86.958 72.8596L70.1694 45.9375H59.5494L73.5408 68.2607H53.6328V76.8733L120.299 76.7892H120.285Z" fill="#CC8232"/>
<path d="M114.108 116.169L99.9507 93.5956H120.28V85.0671H53.6133V93.5956H73.9425L59.7855 116.169H70.3209L86.9385 89.666L103.565 116.169H114.108ZM120.28 76.7892V68.2607H100.363L114.354 45.9375H103.734L86.9385 72.8596L70.1571 45.9375H59.5371L73.5285 68.2607H53.6133V76.8733L120.28 76.7892Z" fill="#CC8232"/>
<path d="M114.088 116.169L99.9312 93.5956H120.26V85.0671H53.5938V93.5956H73.923L59.7659 116.169H70.3013L86.9262 89.666L103.553 116.169H114.088ZM120.26 76.7892V68.2607H100.343L114.335 45.9375H103.715L86.9262 72.8596L70.1376 45.9375H59.5176L73.5089 68.2607H53.5938V76.8733L120.26 76.7892Z" fill="#CC8232"/>
<path d="M114.069 116.091L99.9116 93.5193H120.235V84.989H53.5742V93.5193H73.9034L59.7554 116.091H70.2908L86.9066 89.5878L103.533 116.091H114.069ZM120.235 76.711V68.1826H100.324L114.315 45.8594H103.695L86.9066 72.7814L70.118 45.8594H59.498L73.4894 68.1826H53.5742V76.7952L120.235 76.711Z" fill="#CC8232"/>
<path d="M114.049 116.091L99.8939 93.5174H120.221V84.989H53.5547V93.5174H73.8839L59.7269 116.091H70.2623L86.8871 89.5878L103.514 116.091H114.049ZM120.221 76.7147V68.1826H100.304L114.294 45.8594H103.674L86.8871 72.7814L70.0985 45.8594H59.4785L73.4699 68.1826H53.5547V76.7951L120.221 76.7147Z" fill="#CC8232"/>
<path d="M114.03 116.091L99.8726 93.5174H120.202V84.989H53.5352V93.5174H73.8644L59.7074 116.091H70.2428L86.8676 89.5878L103.492 116.091H114.03ZM120.202 76.711V68.1826H100.285L114.276 45.8594H103.656L86.8676 72.7814L70.079 45.8594H59.459L73.4504 68.1826H53.5352V76.7951L120.202 76.711Z" fill="#CC8232"/>
<path d="M114.01 116.013L99.853 93.4393H120.182V84.9109H53.5156V93.4393H73.8448L59.6878 116.013H70.2232L86.848 89.5097L103.475 116.013H114.01ZM120.182 76.6329V68.1045H100.265L114.257 45.7812H103.637L86.848 72.7033L70.0594 45.7812H59.4394L73.4308 68.1045H53.5156V76.717L120.182 76.6329Z" fill="#CC8232"/>
<path d="M114.01 115.998L99.853 93.432H120.182V84.9127H53.5156V93.4411H73.8448L59.6878 115.998H70.2232L86.848 89.5024L103.475 115.998H114.01ZM120.182 76.6183V68.0898H100.269L114.257 45.7812H103.637L86.848 72.696L70.0594 45.7812H59.4394L73.4326 68.0898H53.5156V76.7024L120.182 76.6183Z" fill="#CC8232"/>
<path d="M113.971 116.013L99.814 93.4393H120.143V84.9109H53.4766V93.4393H73.8058L59.6488 116.013H70.1878L86.809 89.5097L103.436 116.013H113.971ZM120.143 76.6329V68.1045H100.226L114.218 45.7812H103.598L86.809 72.7033L70.0204 45.7812H59.4004L73.3918 68.1045H53.4766V76.7097L120.143 76.6256V76.6329Z" fill="#CC8232"/>
<path d="M113.951 116.013L99.7944 93.4393H120.124V84.9109H53.457V93.4393H73.7862L59.6292 116.013H70.1646L86.7894 89.5097L103.416 116.013H113.951ZM120.124 76.6329V68.1044H100.207L114.198 45.7812H103.578L86.7894 72.7051L70.0062 45.7812H59.3862L73.3776 68.1044H53.457V76.717L120.124 76.6329Z" fill="#CC8232"/>
<path d="M113.918 116.013L99.7677 93.4393H120.097V84.9109H53.4375V93.4393H73.7595L59.6025 116.013H70.1379L86.7627 89.5097L103.389 116.013H113.918ZM120.09 76.6329V68.1044H100.18L114.171 45.7812H103.551L86.7627 72.7033L69.9741 45.7812H59.3541L73.3455 68.1044H53.4375V76.717L120.104 76.6329H120.09Z" fill="#CC8232"/>
<path d="M113.912 115.935L99.7554 93.3612H120.085V84.8327H53.418V93.3612H73.7472L59.5902 115.935H70.1256L86.7432 89.4316L103.37 115.935H113.912ZM120.085 76.5548V68.0263H100.168L114.159 45.7031H103.539L86.7432 72.6252L69.9618 45.7031H59.3418L73.3332 68.0263H53.418V76.6389L120.085 76.5548Z" fill="#CC8232"/>
<path d="M113.912 115.935L99.7554 93.3612H120.085V84.8327H53.418V93.3612H73.7472L59.5902 115.935H70.1256L86.7504 89.4316L103.377 115.935H113.912ZM120.085 76.5548V68.0263H100.168L114.159 45.7031H103.539L86.7504 72.6252L69.9618 45.7031H59.3418L73.3332 68.0263H53.418V76.6389L120.085 76.5548Z" fill="#CC8232"/>
<path d="M113.873 115.935L99.7163 93.363H120.04V84.8327H53.3789V93.363H73.7081L59.5601 115.935H70.0955L86.7113 89.4316L103.338 115.935H113.873ZM120.04 76.5548V68.0263H100.129L114.12 45.7031H103.5L86.7113 72.6252L69.9227 45.7031H59.3027L73.2941 68.0263H53.3789V76.6389L120.04 76.5548Z" fill="#CC8232"/>
<path d="M113.873 115.935L99.7181 93.3612H120.046V84.8327H53.3789V93.3612H73.7081L59.5511 115.935H70.0865L86.7113 89.4316L103.338 115.935H113.873ZM120.046 76.5584V68.0263H100.129L114.118 45.7031H103.498L86.7113 72.6252L69.9227 45.7031H59.3027L73.2941 68.0263H53.3789V76.6389L120.046 76.5584Z" fill="#CC8232"/>
<path d="M113.854 115.857L99.6968 93.2831H120.026V84.7546H53.3594V93.2831H73.6886L59.5316 115.857H70.067L86.6918 89.3535L103.317 115.857H113.854ZM120.026 76.4767V67.9482H100.109L114.1 45.625H103.48L86.6918 72.5471L69.9032 45.625H59.2832L73.2746 67.9482H53.3594V76.5608L120.026 76.4767Z" fill="#CC8232"/>
<path d="M113.834 115.857L99.6772 93.2831H120.006V84.7546H53.3398V93.2831H73.669L59.512 115.857H70.0474L86.6722 89.3535L103.299 115.857H113.834ZM120.006 76.4767V67.9482H100.089L114.081 45.625H103.461L86.6722 72.5471L69.8836 45.625H59.2636L73.255 67.9482H53.3398V76.5608L120.006 76.4767Z" fill="#CC8232"/>
<path d="M113.834 115.842L99.6772 93.2757H120.006V84.7564H53.3398V93.2849H73.669L59.512 115.842H70.0474L86.6722 89.3461L103.299 115.842H113.834ZM120.006 76.462V67.9336H100.093L114.081 45.625H103.461L86.6722 72.5397L69.8836 45.625H59.2636L73.2568 67.9336H53.3398V76.5461L120.006 76.462Z" fill="#CC8232"/>
<path d="M113.776 115.857L99.6187 93.2831H119.948V84.7546H53.2812V93.2831H73.6104L59.4535 115.857H69.9924L86.6136 89.3535L103.24 115.857H113.776ZM119.948 76.4767V67.9482H100.031L114.022 45.625H103.402L86.6136 72.5471L69.8251 45.625H59.2051L73.1964 67.9482H53.2812V76.5535L119.948 76.4693V76.4767Z" fill="#CC8232"/>
<path d="M113.776 115.857L99.6187 93.2831H119.948V84.7546H53.2812V93.2831H73.6105L59.4535 115.857H69.9889L86.6137 89.3535L103.24 115.857H113.776ZM119.948 76.4767V67.9482H100.031L114.022 45.625H103.402L86.6137 72.5489L69.8305 45.625H59.2105L73.2019 67.9482H53.2812V76.5608L119.948 76.4767Z" fill="#CC8232"/>
<path d="M113.742 115.779L99.5919 93.2049H119.921V84.6765H53.2617V93.2049H73.5837L59.4267 115.779H69.9621L86.5869 89.2753L103.214 115.779H113.742ZM119.914 76.3985V67.8701H100.004L113.996 45.5469H103.376L86.5869 72.4689L69.7983 45.5469H59.1783L73.1697 67.8701H53.2617V76.4826L119.928 76.3985H119.914Z" fill="#CC8232"/>
<path d="M113.737 115.779L99.5796 93.2049H119.909V84.6765H53.2422V93.2049H73.5714L59.4144 115.779H69.9498L86.5674 89.2753L103.194 115.779H113.737ZM119.909 76.3985V67.8701H99.9918L113.983 45.5469H103.363L86.5674 72.4689L69.786 45.5469H59.166L73.1574 67.8701H53.2422V76.4826L119.909 76.3985Z" fill="#CC8232"/>
<path d="M113.737 115.779L99.5796 93.2049H119.909V84.6765H53.2422V93.2049H73.5714L59.4144 115.779H69.9498L86.5746 89.2753L103.201 115.779H113.737ZM119.909 76.3985V67.8701H99.9918L113.983 45.5469H103.363L86.5746 72.4689L69.786 45.5469H59.166L73.1574 67.8701H53.2422V76.4827L119.909 76.3985Z" fill="#CC8232"/>
<path d="M113.698 115.701L99.5405 93.1286H119.864V84.5984H53.2031V93.1286H73.5323L59.3843 115.701H69.9197L86.5355 89.1972L103.162 115.701H113.698ZM119.864 76.3204V67.792H99.9527L113.944 45.4688H103.324L86.5355 72.3908L69.7469 45.4688H59.1269L73.1183 67.792H53.2031V76.4045L119.864 76.3204Z" fill="#CC8232"/>
<path d="M113.698 115.701L99.5423 93.1268H119.87V84.5984H53.2031V93.1268H73.5323L59.3753 115.701H69.9107L86.5355 89.1972L103.162 115.701H113.698ZM119.87 76.3241V67.7919H99.9527L113.942 45.4688H103.322L86.5355 72.3908L69.7469 45.4688H59.1269L73.1183 67.7919H53.2031V76.4045L119.87 76.3241Z" fill="#CC8232"/>
<path d="M113.678 115.701L99.521 93.1268H119.85V84.5984H53.1836V93.1268H73.5128L59.3558 115.701H69.8912L86.516 89.1972L103.141 115.701H113.678ZM119.85 76.3204V67.7919H99.9332L113.925 45.4688H103.305L86.516 72.3908L69.7274 45.4688H59.1074L73.0988 67.7919H53.1836V76.4045L119.85 76.3204Z" fill="#CC8232"/>
<path d="M113.658 115.701L99.5015 93.1268H119.831V84.5984H53.1641V93.1268H73.4933L59.3363 115.701H69.8717L86.4965 89.1972L103.123 115.701H113.658ZM119.831 76.3204V67.792H99.9137L113.905 45.4688H103.285L86.4965 72.3908L69.7079 45.4688H59.0879L73.0793 67.792H53.1641V76.4045L119.831 76.3204Z" fill="#CC8232"/>
<path d="M113.619 115.686L99.4624 93.1195H119.792V84.6002H53.125V93.1286H73.4542L59.2972 115.686H69.8326L86.4574 89.1899L103.084 115.686H113.619ZM119.792 76.3058V67.7773H99.8782L113.866 45.4688H103.246L86.4574 72.3835L69.6688 45.4688H59.0488L73.042 67.7773H53.125V76.3899L119.792 76.3058Z" fill="#CC8232"/>
<path d="M113.6 115.622L99.4429 93.0487H119.772V84.5202H53.1055V93.0487H73.4347L59.2777 115.622H69.8167L86.4379 89.1191L103.064 115.622H113.6ZM119.772 76.2423V67.7138H99.8551L113.846 45.3906H103.226L86.4379 72.3127L69.6493 45.3906H59.0293L73.0207 67.7138H53.1055V76.3191L119.772 76.235V76.2423Z" fill="#CC8232"/>
<path d="M113.6 115.622L99.4429 93.0487H119.772V84.5202H53.1055V93.0487H73.4347L59.2777 115.622H69.8131L86.4379 89.1191L103.064 115.622H113.6ZM119.772 76.2423V67.7138H99.8551L113.846 45.3906H103.226L86.4379 72.3145L69.6547 45.3906H59.0347L73.0261 67.7138H53.1055V76.3264L119.772 76.2423Z" fill="#CC8232"/>
<path d="M113.566 115.622L99.4161 93.0487H119.745V84.5202H53.0859V93.0487H73.4079L59.2509 115.622H69.7863L86.4111 89.1191L103.038 115.622H113.566ZM119.738 76.2423V67.7138H99.8283L113.82 45.3906H103.2L86.4111 72.3127L69.6225 45.3906H59.0025L72.9939 67.7138H53.0859V76.3264L119.753 76.2423H119.738Z" fill="#CC8232"/>
<path d="M113.561 115.622L99.4038 93.0487H119.733V84.5202H53.0664V93.0487H73.3956L59.2386 115.622H69.774L86.3916 89.1191L103.018 115.622H113.561ZM119.733 76.2423V67.7138H99.816L113.807 45.3906H103.187L86.3916 72.3127L69.6102 45.3906H58.9902L72.9816 67.7138H53.0664V76.3264L119.733 76.2423Z" fill="#CC8232"/>
<path d="M113.541 115.544L99.3843 92.9706H119.713V84.4421H53.0469V92.9706H73.3761L59.2191 115.544H69.7545L86.3793 89.041L103.006 115.544H113.541ZM119.713 76.1642V67.6357H99.7965L113.788 45.3125H103.168L86.3793 72.2346L69.5907 45.3125H58.9707L72.9621 67.6357H53.0469V76.2483L119.713 76.1642Z" fill="#CC8232"/>
<path d="M113.522 115.544L99.3647 92.9724H119.689V84.4421H53.0273V92.9724H73.3565L59.2085 115.544H69.7439L86.3597 89.041L102.986 115.544H113.522ZM119.689 76.1642V67.6357H99.7769L113.768 45.3125H103.148L86.3597 72.2346L69.5711 45.3125H58.9511L72.9425 67.6357H53.0273V76.2483L119.689 76.1642Z" fill="#CC8232"/>
<path d="M113.502 115.544L99.347 92.9706H119.674V84.4421H53.0078V92.9706H73.337L59.18 115.544H69.7154L86.3402 89.041L102.967 115.544H113.502ZM119.674 76.1678V67.6357H99.7574L113.747 45.3125H103.127L86.3402 72.2346L69.5516 45.3125H58.9316L72.923 67.6357H53.0078V76.2483L119.674 76.1678Z" fill="#CC8232"/>
<path d="M113.502 115.544L99.3452 92.9706H119.674V84.4421H53.0078V92.9706H73.337L59.18 115.544H69.7154L86.3402 89.041L102.965 115.544H113.502ZM119.674 76.1642V67.6357H99.7574L113.749 45.3125H103.129L86.3402 72.2346L69.5516 45.3125H58.9316L72.923 67.6357H53.0078V76.2483L119.674 76.1642Z" fill="#CC8232"/>
<path d="M113.483 115.544L99.3257 92.9706H119.655V84.4421H52.9883V92.9706H73.3175L59.1605 115.544H69.6959L86.3207 89.041L102.947 115.544H113.483ZM119.655 76.1642V67.6357H99.7379L113.729 45.3125H103.109L86.3207 72.2346L69.5321 45.3125H58.9121L72.9035 67.6357H52.9883V76.2483L119.655 76.1642Z" fill="#CC8232"/>
<path d="M113.463 115.452L99.3062 92.8851H119.635V84.3658H52.9688V92.8943H73.298L59.1409 115.452H69.6763L86.3012 88.9555L102.928 115.452H113.463ZM119.635 76.0714V67.5429H99.722L113.71 45.2344H103.09L86.3012 72.1491L69.5126 45.2344H58.8926L72.8857 67.5429H52.9688V76.1555L119.635 76.0714Z" fill="#CC8232"/>
<path d="M113.424 115.466L99.2671 92.8924H119.596V84.364H52.9297V92.8924H73.2589L59.1019 115.466H69.6409L86.2621 88.9628L102.889 115.466H113.424ZM119.596 76.086V67.5576H99.6793L113.671 45.2344H103.051L86.2621 72.1564L69.4735 45.2344H58.8535L72.8449 67.5576H52.9297V76.1628L119.596 76.0787V76.086Z" fill="#CC8232"/>
<path d="M113.405 115.466L99.2476 92.8924H119.577V84.364H52.9102V92.8924H73.2394L59.0824 115.466H69.6178L86.2426 88.9628L102.869 115.466H113.405ZM119.577 76.086V67.5576H99.6598L113.651 45.2344H103.031L86.2426 72.1583L69.4594 45.2344H58.8394L72.8308 67.5576H52.9102V76.1701L119.577 76.086Z" fill="#CC8232"/>
<path d="M113.39 115.388L99.2404 92.8143H119.57V84.2859H52.9102V92.8143H73.2322L59.0752 115.388H69.6106L86.2354 88.8847L102.862 115.388H113.39ZM119.562 76.0079V67.4794H99.6526L113.644 45.1562H103.024L86.2354 72.0783L69.4468 45.1562H58.8268L72.8182 67.4794H52.9102V76.092L119.577 76.0079H119.562Z" fill="#CC8232"/>
<path d="M113.385 115.388L99.228 92.8143H119.557V84.2859H52.8906V92.8143H73.2198L59.0628 115.388H69.5982L86.2158 88.8847L102.842 115.388H113.385ZM119.557 76.0079V67.4795H99.6402L113.632 45.1562H103.012L86.2158 72.0783L69.4344 45.1562H58.8144L72.8058 67.4795H52.8906V76.092L119.557 76.0079Z" fill="#CC8232"/>
<path d="M113.365 115.388L99.2085 92.8143H119.538V84.2859H52.8711V92.8143H73.2003L59.0433 115.388H69.5787L86.2035 88.8847L102.83 115.388H113.365ZM119.538 76.0079V67.4795H99.6207L113.612 45.1562H102.992L86.2035 72.0783L69.4149 45.1562H58.7949L72.7863 67.4795H52.8711V76.092L119.538 76.0079Z" fill="#CC8232"/>
<path d="M113.346 115.388L99.189 92.8161H119.513V84.2859H52.8516V92.8161H73.1808L59.0328 115.388H69.5682L86.184 88.8847L102.811 115.388H113.346ZM119.513 76.0079V67.4795H99.6012L113.593 45.1562H102.973L86.184 72.0783L69.3954 45.1562H58.7754L72.7668 67.4795H52.8516V76.092L119.513 76.0079Z" fill="#CC8232"/>
<path d="M113.326 115.388L99.1712 92.8143H119.499V84.2859H52.832V92.8143H73.1612L59.0042 115.388H69.5396L86.1644 88.8847L102.791 115.388H113.326ZM119.499 76.0116V67.4794H99.5816L113.571 45.1562H102.951L86.1644 72.0783L69.3758 45.1562H58.7558L72.7472 67.4794H52.832V76.092L119.499 76.0116Z" fill="#CC8232"/>
<path d="M113.326 115.31L99.1694 92.7362H119.499V84.2077H52.832V92.7362H73.1612L59.0042 115.31H69.5396L86.1644 88.8066L102.789 115.31H113.326ZM119.499 75.9298V67.4013H99.5816L113.573 45.0781H102.953L86.1644 72.0002L69.3758 45.0781H58.7558L72.7472 67.4013H52.832V76.0139L119.499 75.9298Z" fill="#CC8232"/>
<path d="M113.307 115.31L99.1499 92.7362H119.479V84.2077H52.8125V92.7362H73.1417L58.9847 115.31H69.5201L86.1449 88.8066L102.771 115.31H113.307ZM119.479 75.9298V67.4013H99.5621L113.554 45.0781H102.934L86.1449 72.0002L69.3563 45.0781H58.7363L72.7277 67.4013H52.8125V76.0139L119.479 75.9298Z" fill="#CC8232"/>
<path d="M113.268 115.295L99.1108 92.7289H119.44V84.2095H52.7734V92.738H73.1026L58.9456 115.295H69.481L86.1058 88.7993L102.732 115.295H113.268ZM119.44 75.9152V67.3867H99.5266L113.514 45.0781H102.894L86.1058 71.9929L69.3172 45.0781H58.6972L72.6904 67.3867H52.7734V75.9993L119.44 75.9152Z" fill="#CC8232"/>
<path d="M113.248 115.31L99.0913 92.7362H119.421V84.2077H52.7539V92.7362H73.0831L58.9261 115.31H69.4651L86.0863 88.8066L102.713 115.31H113.248ZM119.421 75.9298V67.4013H99.5035L113.495 45.0781H102.875L86.0863 72.0002L69.2977 45.0781H58.6777L72.6691 67.4013H52.7539V76.0066L119.421 75.9225V75.9298Z" fill="#CC8232"/>
<path d="M113.229 115.232L99.0718 92.6581H119.401V84.1296H52.7344V92.6581H73.0636L58.9066 115.232H69.442L86.0668 88.7285L102.693 115.232H113.229ZM119.401 75.8517V67.3232H99.484L113.475 45H102.855L86.0668 71.9239L69.2836 45H58.6636L72.655 67.3232H52.7344V75.9358L119.401 75.8517Z" fill="#CC8232"/>
<path d="M113.214 115.232L99.0646 92.6581H119.394V84.1296H52.7344V92.6581H73.0564L58.8994 115.232H69.4348L86.0596 88.7285L102.686 115.232H113.214ZM119.387 75.8517V67.3232H99.4768L113.468 45H102.848L86.0596 71.9221L69.271 45H58.651L72.6424 67.3232H52.7344V75.9358L119.401 75.8517H119.387Z" fill="#CC8232"/>
<path d="M113.209 115.232L99.0522 92.6581H119.381V84.1296H52.7148V92.6581H73.044L58.887 115.232H69.4224L86.04 88.7285L102.667 115.232H113.209ZM119.381 75.8517V67.3232H99.4645L113.456 45H102.836L86.04 71.9221L69.2586 45H58.6386L72.63 67.3232H52.7148V75.9358L119.381 75.8517Z" fill="#CC8232"/>
<path d="M113.19 115.232L99.0327 92.6581H119.362V84.1296H52.6953V92.6581H73.0245L58.8675 115.232H69.4029L86.0277 88.7285L102.654 115.232H113.19ZM119.362 75.8517V67.3232H99.4449L113.436 45H102.816L86.0277 71.9221L69.2391 45H58.6191L72.6105 67.3232H52.6953V75.9358L119.362 75.8517Z" fill="#CC8232"/>
<path d="M113.17 115.232L99.0132 92.6599H119.337V84.1296H52.6758V92.6599H73.005L58.857 115.232H69.3924L86.0082 88.7285L102.635 115.232H113.17ZM119.337 75.8517V67.3232H99.4254L113.417 45H102.797L86.0082 71.9221L69.2196 45H58.5996L72.591 67.3232H52.6758V75.9358L119.337 75.8517Z" fill="#CC8232"/>
<path d="M113.151 115.154L98.9955 92.5799H119.323V84.0515H52.6562V92.5799H72.9855L58.8285 115.154H69.3639L85.9887 88.6503L102.615 115.154H113.151ZM119.323 75.7772V67.2451H99.4059L113.395 44.9219H102.775L85.9887 71.8439L69.2001 44.9219H58.5801L72.5715 67.2451H52.6562V75.8576L119.323 75.7772Z" fill="#CC8232"/>
<path d="M113.131 115.154L98.9741 92.5799H119.303V84.0515H52.6367V92.5799H72.9659L58.8089 115.154H69.3443L85.9691 88.6503L102.594 115.154H113.131ZM119.303 75.7735V67.2451H99.3863L113.378 44.9219H102.758L85.9691 71.8439L69.1805 44.9219H58.5605L72.5519 67.2451H52.6367V75.8576L119.303 75.7735Z" fill="#CC8232"/>
<path d="M113.131 115.154L98.9741 92.5799H119.303V84.0515H52.6367V92.5799H72.9659L58.8089 115.154H69.3443L85.9691 88.6503L102.596 115.154H113.131ZM119.303 75.7735V67.2451H99.3863L113.378 44.9219H102.758L85.9691 71.8439L69.1805 44.9219H58.5605L72.5519 67.2451H52.6367V75.8576L119.303 75.7735Z" fill="#CC8232"/>
<path d="M113.073 115.139L98.9155 92.5726H119.245V84.0533H52.5781V92.5818H72.9073L58.7503 115.139H69.2857L85.9105 88.643L102.537 115.139H113.073ZM119.245 75.7589V67.2304H99.3313L113.319 44.9219H102.699L85.9105 71.8366L69.1219 44.9219H58.5019L72.4951 67.2304H52.5781V75.843L119.245 75.7589Z" fill="#CC8232"/>
<path d="M111.823 113.811L97.6655 91.2445H117.995V82.7252H51.3281V91.2536H71.6573L57.5003 113.811H68.0357L84.6605 87.3149L101.287 113.811H111.823ZM117.995 74.4308V65.9023H98.0813L112.069 43.5938H101.449L84.6605 70.5085L67.8719 43.5938H57.2519L71.2451 65.9023H51.3281V74.5149L117.995 74.4308Z" fill="#E0E0E0"/>
<path d="M111.842 113.826L97.6851 91.2518H118.014V82.7234H51.3477V91.2518H71.6769L57.5199 113.826H68.0553L84.6801 87.3222L101.307 113.826H111.842ZM118.014 74.4454V65.917H98.0973L112.089 43.5938H101.469L84.6801 70.5158L67.8915 43.5938H57.2715L71.2629 65.917H51.3477V74.5295L118.014 74.4454Z" fill="#E0E0E0"/>
<path d="M111.862 113.904L97.7046 91.3299H118.034V82.8015H51.3672V91.3299H71.6964L57.5394 113.904H68.0748L84.6996 87.4003L101.324 113.904H111.862ZM118.034 74.5235V65.9951H98.1168L112.108 43.6719H101.488L84.6996 70.5939L67.911 43.6719H57.291L71.2824 65.9951H51.3672V74.6076L118.034 74.5235Z" fill="#E0E0E0"/>
<path d="M111.901 113.904L97.7455 91.3299H118.073V82.8015H51.4062V91.3299H71.7355L57.5785 113.904H68.1139L84.7387 87.4003L101.365 113.904H111.901ZM118.073 74.5272V65.9951H98.1559L112.145 43.6719H101.525L84.7387 70.5939L67.9501 43.6719H57.3301L71.3215 65.9951H51.4062V74.6076L118.073 74.5272Z" fill="#E0E0E0"/>
<path d="M111.92 113.904L97.7632 91.3318H118.087V82.8015H51.4258V91.3318H71.755L57.607 113.904H68.1424L84.7582 87.4003L101.385 113.904H111.92ZM118.087 74.5235V65.9951H98.1754L112.167 43.6719H101.547L84.7582 70.5939L67.9696 43.6719H57.3496L71.341 65.9951H51.4258V74.6077L118.087 74.5235Z" fill="#E0E0E0"/>
<path d="M111.92 113.904L97.7632 91.3299H118.092V82.8015H51.4258V91.3299H71.755L57.598 113.904H68.1334L84.7582 87.4003L101.385 113.904H111.92ZM118.092 74.5235V65.9951H98.1754L112.167 43.6719H101.547L84.7582 70.5939L67.9696 43.6719H57.3496L71.341 65.9951H51.4258V74.6077L118.092 74.5235Z" fill="#E0E0E0"/>
<path d="M111.94 113.982L97.7827 91.4081H118.112V82.8796H51.4453V91.4081H71.7745L57.6175 113.982H68.1529L84.7705 87.4785L101.397 113.982H111.94ZM118.112 74.6017V66.0732H98.1949L112.186 43.75H101.566L84.7705 70.6721L67.9891 43.75H57.3691L71.3605 66.0732H51.4453V74.6858L118.112 74.6017Z" fill="#E0E0E0"/>
<path d="M111.964 113.982L97.8146 91.4081H118.144V82.8796H51.4844V91.4081H71.8064L57.6494 113.982H68.1848L84.8096 87.4785L101.436 113.982H111.964ZM118.137 74.6017V66.0732H98.2268L112.218 43.75H101.598L84.8096 70.6721L68.021 43.75H57.401L71.3924 66.0732H51.4844V74.6858L118.151 74.6017H118.137Z" fill="#E0E0E0"/>
<path d="M111.979 113.982L97.8218 91.4081H118.151V82.8796H51.4844V91.4081H71.8136L57.6566 113.982H68.192L84.8168 87.4785L101.443 113.982H111.979ZM118.151 74.6017V66.0732H98.234L112.225 43.75H101.605L84.8168 70.6739L68.0336 43.75H57.4136L71.405 66.0732H51.4844V74.6858L118.151 74.6017Z" fill="#E0E0E0"/>
<path d="M111.998 113.982L97.8413 91.4081H118.171V82.8796H51.5039V91.4081H71.8331L57.6761 113.982H68.2151L84.8363 87.4785L101.463 113.982H111.998ZM118.171 74.6017V66.0732H98.2535L112.245 43.75H101.625L84.8363 70.6721L68.0477 43.75H57.4277L71.4191 66.0732H51.5039V74.6785L118.171 74.5943V74.6017Z" fill="#E0E0E0"/>
<path d="M111.998 113.967L97.8413 91.4007H118.171V82.8814H51.5039V91.4099H71.8331L57.6761 113.967H68.2115L84.8363 87.4711L101.463 113.967H111.998ZM118.171 74.587V66.0586H98.2571L112.245 43.75H101.625L84.8363 70.6647L68.0477 43.75H57.4277L71.4209 66.0586H51.5039V74.6711L118.171 74.587Z" fill="#E0E0E0"/>
<path d="M112.018 114.06L97.8608 91.4862H118.19V82.9577H51.5234V91.4862H71.8526L57.6956 114.06H68.231L84.8558 87.5566L101.482 114.06H112.018ZM118.19 74.6798V66.1513H98.273L112.264 43.8281H101.644L84.8558 70.7502L68.0672 43.8281H57.4472L71.4386 66.1513H51.5234V74.7639L118.19 74.6798Z" fill="#E0E0E0"/>
<path d="M112.057 114.06L97.8999 91.4862H118.229V82.9577H51.5625V91.4862H71.8917L57.7347 114.06H68.2701L84.8949 87.5566L101.52 114.06H112.057ZM118.229 74.6798V66.1513H98.3121L112.303 43.8281H101.683L84.8949 70.7502L68.1063 43.8281H57.4863L71.4777 66.1513H51.5625V74.7639L118.229 74.6798Z" fill="#E0E0E0"/>
<path d="M112.076 114.06L97.9212 91.4862H118.249V82.9577H51.582V91.4862H71.9112L57.7542 114.06H68.2896L84.9144 87.5566L101.541 114.06H112.076ZM118.249 74.6834V66.1513H98.3316L112.321 43.8281H101.701L84.9144 70.7502L68.1258 43.8281H57.5058L71.4972 66.1513H51.582V74.7639L118.249 74.6834Z" fill="#E0E0E0"/>
<path d="M112.096 114.138L97.939 91.5661H118.263V83.0359H51.6016V91.5661H71.9308L57.7828 114.138H68.3182L84.934 87.6347L101.561 114.138H112.096ZM118.263 74.7579V66.2295H98.3512L112.343 43.9062H101.723L84.934 70.8283L68.1454 43.9062H57.5254L71.5168 66.2295H51.6016V74.842L118.263 74.7579Z" fill="#E0E0E0"/>
<path d="M112.115 114.138L97.9585 91.5643H118.288V83.0359H51.6211V91.5643H71.9503L57.7933 114.138H68.3287L84.9535 87.6347L101.58 114.138H112.115ZM118.288 74.7579V66.2295H98.3707L112.362 43.9062H101.742L84.9535 70.8283L68.1649 43.9062H57.5449L71.5363 66.2295H51.6211V74.842L118.288 74.7579Z" fill="#E0E0E0"/>
<path d="M112.115 114.138L97.9585 91.5643H118.288V83.0359H51.6211V91.5643H71.9503L57.7933 114.138H68.3287L84.9463 87.6347L101.573 114.138H112.115ZM118.288 74.7579V66.2295H98.3707L112.362 43.9062H101.742L84.9463 70.8283L68.1649 43.9062H57.5449L71.5363 66.2295H51.6211V74.842L118.288 74.7579Z" fill="#E0E0E0"/>
<path d="M112.14 114.138L97.9904 91.5643H118.32V83.0359H51.6602V91.5643H71.9822L57.8252 114.138H68.3606L84.9854 87.6347L101.612 114.138H112.14ZM118.312 74.7579V66.2294H98.4026L112.394 43.9062H101.774L84.9854 70.8283L68.1968 43.9062H57.5768L71.5682 66.2294H51.6602V74.842L118.327 74.7579H118.312Z" fill="#E0E0E0"/>
<path d="M112.155 114.138L97.9976 91.5643H118.327V83.0359H51.6602V91.5643H71.9894L57.8324 114.138H68.3678L84.9926 87.6347L101.619 114.138H112.155ZM118.327 74.7579V66.2294H98.4098L112.401 43.9062H101.781L84.9926 70.8301L68.2094 43.9062H57.5894L71.5808 66.2294H51.6602V74.842L118.327 74.7579Z" fill="#E0E0E0"/>
<path d="M112.174 114.216L98.0171 91.6424H118.346V83.114H51.6797V91.6424H72.0089L57.8519 114.216H68.3909L85.0121 87.7128L101.639 114.216H112.174ZM118.346 74.836V66.3076H98.4293L112.421 43.9844H101.801L85.0121 70.9064L68.2235 43.9844H57.6035L71.5949 66.3076H51.6797V74.9128L118.346 74.8287V74.836Z" fill="#E0E0E0"/>
<path d="M112.194 114.202L98.0366 91.6351H118.366V83.1158H51.6992V91.6443H72.0284L57.8714 114.202H68.4068L85.0316 87.7055L101.658 114.202H112.194ZM118.366 74.8214V66.2929H98.4524L112.44 43.9844H101.82L85.0316 70.8991L68.243 43.9844H57.623L71.6162 66.2929H51.6992V74.9055L118.366 74.8214Z" fill="#E0E0E0"/>
<path d="M112.194 114.216L98.0366 91.6424H118.366V83.114H51.6992V91.6424H72.0284L57.8714 114.216H68.4068L85.0316 87.7128L101.658 114.216H112.194ZM118.366 74.836V66.3076H98.4488L112.44 43.9844H101.82L85.0316 70.9064L68.243 43.9844H57.623L71.6144 66.3076H51.6992V74.9201L118.366 74.836Z" fill="#E0E0E0"/>
<path d="M112.252 114.216L98.0952 91.6424H118.424V83.114H51.7578V91.6424H72.087L57.93 114.216H68.4654L85.0902 87.7128L101.715 114.216H112.252ZM118.424 74.836V66.3076H98.5074L112.499 43.9844H101.879L85.0902 70.9064L68.3016 43.9844H57.6816L71.673 66.3076H51.7578V74.9201L118.424 74.836Z" fill="#E0E0E0"/>
<path d="M112.252 114.294L98.097 91.7206H118.424V83.1921H51.7578V91.7206H72.087L57.93 114.294H68.4654L85.0902 87.791L101.717 114.294H112.252ZM118.424 74.9178V66.3857H98.5074L112.497 44.0625H101.877L85.0902 70.9846L68.3016 44.0625H57.6816L71.673 66.3857H51.7578V74.9983L118.424 74.9178Z" fill="#E0E0E0"/>
<path d="M112.272 114.294L98.1147 91.7224H118.439V83.1921H51.7773V91.7224H72.1065L57.9585 114.294H68.4939L85.1097 87.791L101.736 114.294H112.272ZM118.439 74.9142V66.3857H98.5269L112.518 44.0625H101.898L85.1097 70.9846L68.3211 44.0625H57.7011L71.6925 66.3857H51.7773V74.9983L118.439 74.9142Z" fill="#E0E0E0"/>
<path d="M112.291 114.294L98.1343 91.7206H118.463V83.1921H51.7969V91.7206H72.1261L57.9691 114.294H68.5045L85.1293 87.791L101.756 114.294H112.291ZM118.463 74.9142V66.3857H98.5465L112.538 44.0625H101.918L85.1293 70.9846L68.3407 44.0625H57.7207L71.7121 66.3857H51.7969V74.9983L118.463 74.9142Z" fill="#E0E0E0"/>
<path d="M112.291 114.294L98.1343 91.7206H118.463V83.1921H51.7969V91.7206H72.1261L57.9691 114.294H68.5045L85.1221 87.791L101.749 114.294H112.291ZM118.463 74.9142V66.3857H98.5465L112.538 44.0625H101.918L85.1221 70.9846L68.3407 44.0625H57.7207L71.7121 66.3857H51.7969V74.9983L118.463 74.9142Z" fill="#E0E0E0"/>
<path d="M112.316 114.294L98.1661 91.7206H118.495V83.1921H51.8359V91.7206H72.1579L58.0009 114.294H68.5363L85.1611 87.791L101.788 114.294H112.316ZM118.488 74.9142V66.3857H98.5783L112.57 44.0625H101.95L85.1611 70.9846L68.3725 44.0625H57.7525L71.7439 66.3857H51.8359V74.9983L118.503 74.9142H118.488Z" fill="#E0E0E0"/>
<path d="M112.33 114.372L98.1733 91.7987H118.503V83.2702H51.8359V91.7987H72.1651L58.0081 114.372H68.5435L85.1683 87.8691L101.795 114.372H112.33ZM118.503 74.9923V66.4638H98.5855L112.577 44.1406H101.957L85.1683 71.0645L68.3851 44.1406H57.7651L71.7565 66.4638H51.8359V75.0764L118.503 74.9923Z" fill="#E0E0E0"/>
<path d="M112.35 114.372L98.1929 91.7987H118.522V83.2702H51.8555V91.7987H72.1847L58.0277 114.372H68.5667L85.1879 87.8691L101.814 114.372H112.35ZM118.522 74.9923V66.4638H98.6051L112.596 44.1406H101.976L85.1879 71.0627L68.3993 44.1406H57.7793L71.7707 66.4638H51.8555V75.0691L118.522 74.985V74.9923Z" fill="#E0E0E0"/>
<path d="M112.369 114.358L98.2124 91.7914H118.542V83.272H51.875V91.8005H72.2042L58.0472 114.358H68.5826L85.2074 87.8618L101.834 114.358H112.369ZM118.542 74.9777V66.4492H98.6282L112.616 44.1406H101.996L85.2074 71.0554L68.4188 44.1406H57.7988L71.792 66.4492H51.875V75.0618L118.542 74.9777Z" fill="#E0E0E0"/>
<path d="M112.369 114.451L98.2124 91.8768H118.542V83.3484H51.875V91.8768H72.2042L58.0472 114.451H68.5826L85.2074 87.9472L101.834 114.451H112.369ZM118.542 75.0704V66.542H98.6246L112.616 44.2188H101.996L85.2074 71.1408L68.4188 44.2188H57.7988L71.7902 66.542H51.875V75.1545L118.542 75.0704Z" fill="#E0E0E0"/>
<path d="M112.428 114.451L98.271 91.8768H118.6V83.3484H51.9336V91.8768H72.2628L58.1058 114.451H68.6412L85.266 87.9472L101.891 114.451H112.428ZM118.6 75.0704V66.5419H98.6832L112.675 44.2188H102.055L85.266 71.1408L68.4774 44.2188H57.8574L71.8488 66.5419H51.9336V75.1545L118.6 75.0704Z" fill="#E0E0E0"/>
<path d="M112.428 114.451L98.2728 91.8768H118.6V83.3484H51.9336V91.8768H72.2628L58.1058 114.451H68.6412L85.266 87.9472L101.893 114.451H112.428ZM118.6 75.0741V66.5419H98.6832L112.673 44.2188H102.053L85.266 71.1408L68.4774 44.2188H57.8574L71.8488 66.5419H51.9336V75.1545L118.6 75.0741Z" fill="#E0E0E0"/>
<path d="M112.448 114.451L98.2905 91.8786H118.614V83.3484H51.9531V91.8786H72.2823L58.1343 114.451H68.6697L85.2855 87.9472L101.912 114.451H112.448ZM118.614 75.0704V66.542H98.7027L112.694 44.2188H102.074L85.2855 71.1408L68.4969 44.2188H57.8769L71.8683 66.542H51.9531V75.1545L118.614 75.0704Z" fill="#E0E0E0"/>
<path d="M112.467 114.451L98.3101 91.8768H118.639V83.3484H51.9727V91.8768H72.3019L58.1449 114.451H68.6803L85.3051 87.9472L101.932 114.451H112.467ZM118.639 75.0704V66.542H98.7223L112.714 44.2188H102.094L85.3051 71.1408L68.5165 44.2188H57.8965L71.8879 66.542H51.9727V75.1545L118.639 75.0704Z" fill="#E0E0E0"/>
<path d="M112.487 114.529L98.3296 91.9549H118.659V83.4265H51.9922V91.9549H72.3214L58.1644 114.529H68.6998L85.3174 88.0253L101.944 114.529H112.487ZM118.659 75.1485V66.6201H98.7418L112.733 44.2969H102.113L85.3174 71.2189L68.536 44.2969H57.916L71.9074 66.6201H51.9922V75.2326L118.659 75.1485Z" fill="#E0E0E0"/>
<path d="M112.492 114.529L98.3419 91.9549H118.671V83.4265H52.0117V91.9549H72.3337L58.1767 114.529H68.7121L85.3369 88.0253L101.964 114.529H112.492ZM118.664 75.1485V66.6201H98.7541L112.746 44.2969H102.126L85.3369 71.2189L68.5483 44.2969H57.9283L71.9197 66.6201H52.0117V75.2326L118.678 75.1485H118.664Z" fill="#E0E0E0"/>
<path d="M112.526 114.529L98.3687 91.9549H118.698V83.4265H52.0312V91.9549H72.3605L58.2035 114.529H68.7389L85.3637 88.0253L101.99 114.529H112.526ZM118.698 75.1485V66.6201H98.7809L112.772 44.2969H102.152L85.3637 71.2208L68.5805 44.2969H57.9605L71.9519 66.6201H52.0312V75.2326L118.698 75.1485Z" fill="#E0E0E0"/>
<path d="M112.526 114.529L98.3687 91.9549H118.698V83.4265H52.0312V91.9549H72.3604L58.2035 114.529H68.7424L85.3636 88.0253L101.99 114.529H112.526ZM118.698 75.1485V66.6201H98.7808L112.772 44.2969H102.152L85.3636 71.2189L68.5751 44.2969H57.9551L71.9464 66.6201H52.0312V75.2253L118.698 75.1412V75.1485Z" fill="#E0E0E0"/>
<path d="M112.545 114.592L98.3882 92.0257H118.717V83.5064H52.0508V92.0349H72.38L58.223 114.592H68.7584L85.3832 88.0961L102.01 114.592H112.545ZM118.717 75.212V66.6836H98.804L112.792 44.375H102.172L85.3832 71.2897L68.5946 44.375H57.9746L71.9678 66.6836H52.0508V75.2961L118.717 75.212Z" fill="#E0E0E0"/>
<path d="M112.565 114.607L98.4077 92.0331H118.737V83.5046H52.0703V92.0331H72.3995L58.2425 114.607H68.7779L85.4027 88.1035L102.029 114.607H112.565ZM118.737 75.2267V66.6982H98.8199L112.811 44.375H102.191L85.4027 71.2971L68.6141 44.375H57.9941L71.9855 66.6982H52.0703V75.3108L118.737 75.2267Z" fill="#E0E0E0"/>
<path d="M112.604 114.607L98.4468 92.0331H118.776V83.5046H52.1094V92.0331H72.4386L58.2816 114.607H68.817L85.4418 88.1035L102.067 114.607H112.604ZM118.776 75.2267V66.6982H98.859L112.85 44.375H102.23L85.4418 71.2971L68.6532 44.375H58.0332L72.0246 66.6982H52.1094V75.3108L118.776 75.2267Z" fill="#E0E0E0"/>
<path d="M112.623 114.607L98.4681 92.0331H118.796V83.5046H52.1289V92.0331H72.4581L58.3011 114.607H68.8365L85.4613 88.1035L102.088 114.607H112.623ZM118.796 75.2303V66.6982H98.8785L112.868 44.375H102.248L85.4613 71.2971L68.6727 44.375H58.0527L72.0441 66.6982H52.1289V75.3108L118.796 75.2303Z" fill="#E0E0E0"/>
<path d="M112.643 114.607L98.4858 92.0349H118.81V83.5046H52.1484V92.0349H72.4776L58.3296 114.607H68.865L85.4808 88.1035L102.107 114.607H112.643ZM118.81 75.2267V66.6982H98.898L112.889 44.375H102.269L85.4808 71.2971L68.6922 44.375H58.0722L72.0636 66.6982H52.1484V75.3108L118.81 75.2267Z" fill="#E0E0E0"/>
<path d="M112.643 114.685L98.4858 92.1112H118.815V83.5827H52.1484V92.1112H72.4776L58.3206 114.685H68.856L85.4808 88.1816L102.107 114.685H112.643ZM118.815 75.3048V66.7763H98.898L112.889 44.4531H102.269L85.4808 71.3752L68.6922 44.4531H58.0722L72.0636 66.7763H52.1484V75.3889L118.815 75.3048Z" fill="#E0E0E0"/>
<path d="M112.662 114.685L98.5054 92.1112H118.835V83.5827H52.168V92.1112H72.4972L58.3402 114.685H68.8756L85.4932 88.1816L102.12 114.685H112.662ZM118.835 75.3048V66.7763H98.9176L112.909 44.4531H102.289L85.4932 71.3752L68.7118 44.4531H58.0918L72.0832 66.7763H52.168V75.3889L118.835 75.3048Z" fill="#E0E0E0"/>
<path d="M112.668 114.685L98.5177 92.1112H118.847V83.5827H52.1875V92.1112H72.5095L58.3525 114.685H68.8879L85.5127 88.1816L102.139 114.685H112.668ZM118.84 75.3048V66.7763H98.9299L112.921 44.4531H102.301L85.5127 71.3752L68.7241 44.4531H58.1041L72.0955 66.7763H52.1875V75.3889L118.854 75.3048H118.84Z" fill="#E0E0E0"/>
<path d="M112.701 114.763L98.5444 92.1893H118.874V83.6609H52.207V92.1893H72.5362L58.3792 114.763H68.9146L85.5394 88.2597L102.166 114.763H112.701ZM118.874 75.3829V66.8544H98.9566L112.948 44.5312H102.328L85.5394 71.4551L68.7562 44.5312H58.1362L72.1276 66.8544H52.207V75.467L118.874 75.3829Z" fill="#E0E0E0"/>
<path d="M112.701 114.763L98.5444 92.1893H118.874V83.6609H52.207V92.1893H72.5362L58.3792 114.763H68.9182L85.5394 88.2597L102.166 114.763H112.701ZM118.874 75.3829V66.8545H98.9566L112.948 44.5312H102.328L85.5394 71.4533L68.7508 44.5312H58.1308L72.1222 66.8545H52.207V75.4597L118.874 75.3756V75.3829Z" fill="#E0E0E0"/>
<path d="M112.721 114.748L98.564 92.182H118.893V83.6627H52.2266V92.1911H72.5558L58.3988 114.748H68.9342L85.559 88.2524L102.186 114.748H112.721ZM118.893 75.3683V66.8398H98.9798L112.968 44.5312H102.348L85.559 71.446L68.7704 44.5312H58.1504L72.1436 66.8398H52.2266V75.4524L118.893 75.3683Z" fill="#E0E0E0"/>
<path d="M112.76 114.763L98.603 92.1893H118.932V83.6609H52.2656V92.1893H72.5948L58.4378 114.763H68.9732L85.598 88.2597L102.225 114.763H112.76ZM118.932 75.3829V66.8545H99.0152L113.007 44.5312H102.387L85.598 71.4533L68.8094 44.5312H58.1894L72.1808 66.8545H52.2656V75.467L118.932 75.3829Z" fill="#E0E0E0"/>
<path d="M112.78 114.763L98.6226 92.1893H118.952V83.6609H52.2852V92.1893H72.6144L58.4574 114.763H68.9928L85.6176 88.2597L102.242 114.763H112.78ZM118.952 75.3829V66.8544H99.0348L113.026 44.5312H102.406L85.6176 71.4533L68.829 44.5312H58.209L72.2004 66.8544H52.2852V75.467L118.952 75.3829Z" fill="#E0E0E0"/>
<path d="M112.799 114.763L98.6439 92.1893H118.971V83.6609H52.3047V92.1893H72.6339L58.4769 114.763H69.0123L85.6371 88.2597L102.264 114.763H112.799ZM118.971 75.3866V66.8544H99.0543L113.044 44.5312H102.424L85.6371 71.4533L68.8485 44.5312H58.2285L72.2199 66.8544H52.3047V75.467L118.971 75.3866Z" fill="#E0E0E0"/>
<path d="M112.799 114.841L98.6421 92.2693H118.966V83.739H52.3047V92.2693H72.6339L58.4859 114.841H69.0213L85.6371 88.3378L102.264 114.841H112.799ZM118.966 75.461V66.9326H99.0543L113.046 44.6094H102.426L85.6371 71.5314L68.8485 44.6094H58.2285L72.2199 66.9326H52.3047V75.5452L118.966 75.461Z" fill="#E0E0E0"/>
<path d="M112.819 114.841L98.6616 92.2674H118.991V83.739H52.3242V92.2674H72.6534L58.4964 114.841H69.0318L85.6566 88.3378L102.283 114.841H112.819ZM118.991 75.461V66.9326H99.0738L113.065 44.6094H102.445L85.6566 71.5314L68.868 44.6094H58.248L72.2394 66.9326H52.3242V75.5452L118.991 75.461Z" fill="#E0E0E0"/>
<path d="M112.838 114.841L98.6812 92.2674H119.01V83.739H52.3438V92.2674H72.673L58.516 114.841H69.0514L85.669 88.3378L102.296 114.841H112.838ZM119.01 75.461V66.9326H99.0934L113.085 44.6094H102.465L85.669 71.5314L68.8876 44.6094H58.2676L72.259 66.9326H52.3438V75.5451L119.01 75.461Z" fill="#E0E0E0"/>
<path d="M112.843 114.919L98.6935 92.3456H119.023V83.8171H52.3633V92.3456H72.6853L58.5283 114.919H69.0637L85.6885 88.416L102.315 114.919H112.843ZM119.015 75.5392V67.0107H99.1057L113.097 44.6875H102.477L85.6885 71.6096L68.8999 44.6875H58.2799L72.2713 67.0107H52.3633V75.6233L119.03 75.5392H119.015Z" fill="#E0E0E0"/>
<path d="M112.877 114.919L98.7202 92.3456H119.049V83.8171H52.3828V92.3456H72.712L58.555 114.919H69.0904L85.7152 88.416L102.342 114.919H112.877ZM119.049 75.5392V67.0107H99.1324L113.124 44.6875H102.504L85.7152 71.6114L68.932 44.6875H58.312L72.3034 67.0107H52.3828V75.6233L119.049 75.5392Z" fill="#E0E0E0"/>
<path d="M112.897 114.919L98.7397 92.3456H119.069V83.8171H52.4023V92.3456H72.7315L58.5745 114.919H69.1135L85.7347 88.416L102.361 114.919H112.897ZM119.069 75.5392V67.0107H99.1519L113.143 44.6875H102.523L85.7347 71.6096L68.9461 44.6875H58.3261L72.3175 67.0107H52.4023V75.616L119.069 75.5318V75.5392Z" fill="#E0E0E0"/>
<path d="M112.897 114.905L98.7397 92.3382H119.069V83.8189H52.4023V92.3474H72.7315L58.5745 114.905H69.1099L85.7347 88.4086L102.361 114.905H112.897ZM119.069 75.5245V66.9961H99.1555L113.143 44.6875H102.523L85.7347 71.6022L68.9461 44.6875H58.3261L72.3193 66.9961H52.4023V75.6086L119.069 75.5245Z" fill="#E0E0E0"/>
<path d="M112.916 114.919L98.7593 92.3456H119.088V83.8171H52.4219V92.3456H72.7511L58.5941 114.919H69.1295L85.7543 88.416L102.381 114.919H112.916ZM119.088 75.5392V67.0107H99.1715L113.163 44.6875H102.543L85.7543 71.6096L68.9657 44.6875H58.3457L72.3371 67.0107H52.4219V75.6233L119.088 75.5392Z" fill="#E0E0E0"/>
<path d="M112.955 114.997L98.7983 92.4237H119.128V83.8952H52.4609V92.4237H72.7901L58.6331 114.997H69.1685L85.7933 88.4941L102.418 114.997H112.955ZM119.128 75.6173V67.0888H99.2105L113.202 44.7656H102.582L85.7933 71.6877L69.0047 44.7656H58.3847L72.3761 67.0888H52.4609V75.7014L119.128 75.6173Z" fill="#E0E0E0"/>
<path d="M112.975 114.997L98.8197 92.4237H119.147V83.8952H52.4805V92.4237H72.8097L58.6527 114.997H69.1881L85.8129 88.4941L102.439 114.997H112.975ZM119.147 75.6209V67.0888H99.2301L113.22 44.7656H102.6L85.8129 71.6877L69.0243 44.7656H58.4043L72.3957 67.0888H52.4805V75.7014L119.147 75.6209Z" fill="#E0E0E0"/>
<path d="M112.994 114.997L98.8374 92.4255H119.161V83.8952H52.5V92.4255H72.8292L58.6812 114.997H69.2166L85.8324 88.4941L102.459 114.997H112.994ZM119.161 75.6173V67.0888H99.2496L113.241 44.7656H102.621L85.8324 71.6877L69.0438 44.7656H58.4238L72.4152 67.0888H52.5V75.7014L119.161 75.6173Z" fill="#E0E0E0"/>
<path d="M112.994 114.997L98.8374 92.4237H119.167V83.8952H52.5V92.4237H72.8292L58.6722 114.997H69.2076L85.8324 88.4941L102.459 114.997H112.994ZM119.167 75.6173V67.0888H99.2496L113.241 44.7656H102.621L85.8324 71.6877L69.0438 44.7656H58.4238L72.4152 67.0888H52.5V75.7014L119.167 75.6173Z" fill="#E0E0E0"/>
<path d="M113.033 115.076L98.8765 92.5018H119.206V83.9734H52.5391V92.5018H72.8683L58.7113 115.076H69.2467L85.8643 88.5722L102.491 115.076H113.033ZM119.206 75.6954V67.167H99.2887L113.28 44.8438H102.66L85.8643 71.7658L69.0829 44.8438H58.4629L72.4543 67.167H52.5391V75.7795L119.206 75.6954Z" fill="#E0E0E0"/>
<path d="M113.039 115.076L98.8888 92.5018H119.218V83.9734H52.5586V92.5018H72.8806L58.7236 115.076H69.259L85.8838 88.5722L102.51 115.076H113.039ZM119.211 75.6954V67.1669H99.301L113.292 44.8438H102.672L85.8838 71.7658L69.0952 44.8438H58.4752L72.4666 67.1669H52.5586V75.7795L119.225 75.6954H119.211Z" fill="#E0E0E0"/>
<path d="M113.053 115.076L98.896 92.5018H119.225V83.9734H52.5586V92.5018H72.8878L58.7308 115.076H69.2662L85.891 88.5722L102.518 115.076H113.053ZM119.225 75.6954V67.1669H99.3082L113.3 44.8438H102.68L85.891 71.7676L69.1078 44.8438H58.4878L72.4792 67.1669H52.5586V75.7795L119.225 75.6954Z" fill="#E0E0E0"/>
<path d="M113.073 115.076L98.9155 92.5018H119.245V83.9734H52.5781V92.5018H72.9073L58.7503 115.076H69.2893L85.9105 88.5722L102.537 115.076H113.073ZM119.245 75.6954V67.167H99.3277L113.319 44.8438H102.699L85.9105 71.7658L69.1219 44.8438H58.5019L72.4933 67.167H52.5781V75.7722L119.245 75.6881V75.6954Z" fill="#E0E0E0"/>
<path d="M113.073 115.139L98.9155 92.5726H119.245V84.0533H52.5781V92.5818H72.9073L58.7503 115.139H69.2857L85.9105 88.643L102.537 115.139H113.073ZM119.245 75.7589V67.2304H99.3313L113.319 44.9219H102.699L85.9105 71.8366L69.1219 44.9219H58.5019L72.4951 67.2304H52.5781V75.843L119.245 75.7589Z" fill="#E0E0E0"/>
<path d="M113.073 115.139L98.9155 92.5726H119.245V84.0533H52.5781V92.5818H72.9073L58.7503 115.139H69.2857L85.9105 88.643L102.537 115.139H113.073ZM119.245 75.7589V67.2304H99.3313L113.319 44.9219H102.699L85.9105 71.8366L69.1219 44.9219H58.5019L72.4951 67.2304H52.5781V75.843L119.245 75.7589Z" fill="#DFC805"/>
</svg>