<svg xmlns:xlink="http://www.w3.org/1999/xlink" xmlns="http://www.w3.org/2000/svg" width="24" height="24" viewBox="0 0 24 24" fill="none">
<g style="mix-blend-mode:plus-lighter">
<path d="M3 16.5C3 18.98 5.02 21 7.5 21H16.5C18.98 21 21 18.98 21 16.5V8.5H3V16.5ZM9.5 12C9.5 11.825 9.595 11.66 9.745 11.57C9.9 11.48 10.09 11.475 10.245 11.565L14.745 14.065C14.9 14.15 15 14.32 15 14.5C15 14.68 14.9 14.85 14.745 14.935L10.245 17.435C10.165 17.48 10.0851 17.5 10 17.5C9.91 17.5 9.825 17.475 9.745 17.43C9.595 17.34 9.5 17.175 9.5 17V12ZM21 7.5C21 5.02 18.98 3 16.5 3H13.765L16.765 7.5H21ZM15.57 7.5L12.565 3H7.5C7.42 3 7.345 3 7.27 3.005L10.265 7.5H15.57ZM6.2 3.195C4.35 3.75 3 5.47 3 7.5H9.07L6.2 3.195Z" fill="white" fill-opacity="0.6"/>
</g>
</svg>